<?xml version="1.0" encoding="utf-8"?>
<!-- Generator: Adobe Illustrator 28.0.0, SVG Export Plug-In . SVG Version: 6.00 Build 0)  -->
<svg version="1.1" id="Camada_1" xmlns="http://www.w3.org/2000/svg" xmlns:xlink="http://www.w3.org/1999/xlink" x="0px" y="0px"
	 viewBox="0 0 372.46 65.57" style="enable-background:new 0 0 372.46 65.57;" xml:space="preserve">
<style type="text/css">
	.st0{fill:#FFC000;}
	.st1{fill:none;stroke:#FFC000;stroke-width:0.4218;stroke-miterlimit:10;}
	.st2{fill:#FF8800;}
	.st3{fill:#00BAD6;}
	.st4{fill:#75C200;}
</style>
<g>
	<g>
		
			<rect x="139.59" y="34.39" transform="matrix(-1 -4.458090e-11 4.458090e-11 -1 292.6358 77.358)" class="st0" width="13.46" height="8.57"/>
		
			<rect x="130.1" y="36.94" transform="matrix(-1 -4.533897e-11 4.533897e-11 -1 269.4256 77.7347)" class="st0" width="9.23" height="3.86"/>
		
			<rect x="111.1" y="36.09" transform="matrix(-1 -4.484958e-11 4.484958e-11 -1 240.9425 76.8872)" class="st0" width="18.74" height="4.71"/>
		<polygon class="st0" points="110.84,24.88 110.84,42.17 96.53,44.75 96.53,27.71 		"/>
		
			<rect x="92.41" y="34.11" transform="matrix(-1 -4.429091e-11 4.429091e-11 -1 188.6843 80.1828)" class="st0" width="3.86" height="11.96"/>
		<g>
			<g>
				<polyline class="st1" points="107.67,43.24 107.67,43.87 107.67,46.2 99.76,45.47 99.76,45.04 99.76,44.72 				"/>
				<circle class="st0" cx="107.57" cy="48.11" r="1.79"/>
			</g>
			<line class="st1" x1="96.55" y1="45.29" x2="110.81" y2="42.66"/>
		</g>
		<line class="st1" x1="96.55" y1="27.08" x2="110.81" y2="24.45"/>
	</g>
	<path class="st2" d="M179.39,8.55h-8.43V0.12h8.43V8.55z M188.88,0.12h-8.43v8.43h8.43V0.12z M198.36,0.12h-8.43v8.43h8.43V0.12z
		 M179.39,28.57h-8.43V37h8.43V28.57z M188.88,28.57h-8.43V37h8.43V28.57z M198.36,28.57h-8.43V37h8.43V28.57z M207.85,19.09h-8.43
		v8.43h8.43V19.09z M207.85,9.6h-8.43v8.43h8.43V9.6z M207.85,47.54h-8.43v8.43h8.43V47.54z M207.85,47.54h-8.43v8.43h8.43V47.54z
		 M207.85,38.05h-8.43v8.43h8.43V38.05z M179.39,57.02h-8.43v8.43h8.43V57.02z M188.88,57.02h-8.43v8.43h8.43V57.02z M198.36,57.02
		h-8.43v8.43h8.43V57.02z M169.91,19.09h-8.43v8.43h8.43V19.09z M169.91,9.6h-8.43v8.43h8.43V9.6z M169.91,0.12h-8.43v8.43h8.43
		V0.12z M169.91,38.05h-8.43v8.43h8.43V38.05z M169.91,47.54h-8.43v8.43h8.43V47.54z M169.91,47.54h-8.43v8.43h8.43V47.54z
		 M169.91,57.02h-8.43v8.43h8.43V57.02z M169.91,28.57h-8.43V37h8.43V28.57z"/>
	<g>
		<path class="st3" d="M243.67,27.52h-8.43v-8.43h8.43V27.52z M243.67,9.6h-8.43v8.43h8.43V9.6z M243.67,38.06h-8.43v8.43h8.43
			V38.06z M243.67,47.54h-8.43v8.43h8.43V47.54z M243.67,57.02h-8.43v8.43h8.43V57.02z M243.67,28.57h-8.43V37h8.43V28.57z
			 M234.19,0.12h-8.43v8.43h8.43V0.12z M243.67,0.12h-8.43v8.43h8.43V0.12z M253.16,0.12h-8.43v8.43h8.43V0.12z M224.7,0.12h-8.43
			v8.43h8.43V0.12z M234.19,57.02h-8.43v8.43h8.43V57.02z M243.67,57.02h-8.43v8.43h8.43V57.02z M253.16,57.02h-8.43v8.43h8.43
			V57.02z M262.64,0.12h-8.43v8.43h8.43V0.12z M262.64,57.02h-8.43v8.43h8.43V57.02z M224.7,57.02h-8.43v8.43h8.43V57.02z"/>
	</g>
	<g>
		<path class="st4" d="M298.47,27.52h-8.43v-8.43h8.43V27.52z M298.47,9.6h-8.43v8.43h8.43V9.6z M298.47,0.12h-8.43v8.43h8.43V0.12z
			 M307.95,0.12h-8.43v8.43h8.43V0.12z M317.44,0.12H309v8.43h8.43V0.12z M279.5,0.12h-8.43v8.43h8.43V0.12z M288.98,0.12h-8.43
			v8.43h8.43V0.12z M298.47,38.05h-8.43v8.43h8.43V38.05z M298.47,47.54h-8.43v8.43h8.43V47.54z M298.47,47.54h-8.43v8.43h8.43
			V47.54z M298.47,57.02h-8.43v8.43h8.43V57.02z M298.47,28.57h-8.43V37h8.43V28.57z"/>
	</g>
	<g>
		<path class="st0" d="M343.78,8.55h-8.43V0.12h8.43V8.55z M353.26,0.12h-8.43v8.43h8.43V0.12z M362.75,0.12h-8.43v8.43h8.43V0.12z
			 M343.78,28.57h-8.43V37h8.43V28.57z M353.26,28.57h-8.43V37h8.43V28.57z M362.75,28.57h-8.43V37h8.43V28.57z M343.78,57.02h-8.43
			v8.43h8.43V57.02z M353.26,57.02h-8.43v8.43h8.43V57.02z M362.75,57.02h-8.43v8.43h8.43V57.02z M372.23,38.06h-8.43v8.43h8.43
			V38.06z M372.23,47.54h-8.43v8.43h8.43V47.54z M334.29,9.6h-8.43v8.43h8.43V9.6z M372.23,9.6h-8.43v8.43h8.43V9.6z M334.29,47.54
			h-8.43v8.43h8.43V47.54z M334.29,19.09h-8.43v8.43h8.43V19.09z"/>
	</g>
	<g>
		<rect x="10.4" y="19.09" class="st3" width="8.43" height="8.43"/>
		<rect x="10.4" y="9.6" class="st3" width="8.43" height="8.43"/>
		<rect x="0.23" y="9.6" class="st3" width="8.43" height="8.43"/>
		<rect x="10.4" y="0.12" class="st3" width="8.43" height="8.43"/>
		<rect x="10.4" y="38.05" class="st3" width="8.43" height="8.43"/>
		<rect x="10.4" y="47.54" class="st3" width="8.43" height="8.43"/>
		<rect x="10.4" y="57.02" class="st3" width="8.43" height="8.43"/>
		<rect x="20.57" y="57.02" class="st3" width="8.43" height="8.43"/>
		<rect x="0.23" y="57.02" class="st3" width="8.43" height="8.43"/>
		<rect x="10.4" y="28.57" class="st3" width="8.43" height="8.43"/>
	</g>
	<g>
		<rect x="75.55" y="19.09" class="st4" width="8.43" height="8.43"/>
		<rect x="56.06" y="19.09" class="st4" width="8.43" height="8.43"/>
		<rect x="75.55" y="9.6" class="st4" width="8.43" height="8.43"/>
		<rect x="65.39" y="9.6" class="st4" width="8.43" height="8.43"/>
		<rect x="75.55" y="0.12" class="st4" width="8.43" height="8.43"/>
		<rect x="75.55" y="38.05" class="st4" width="8.43" height="8.43"/>
		<rect x="37.42" y="38.05" class="st4" width="8.43" height="8.43"/>
		<rect x="75.55" y="47.54" class="st4" width="8.43" height="8.43"/>
		<rect x="65.39" y="47.54" class="st4" width="8.43" height="8.43"/>
		<rect x="56.06" y="47.54" class="st4" width="8.43" height="8.43"/>
		<rect x="46.74" y="47.54" class="st4" width="8.43" height="8.43"/>
		<rect x="37.42" y="47.54" class="st4" width="8.43" height="8.43"/>
		<rect x="75.55" y="57.02" class="st4" width="8.43" height="8.43"/>
		<rect x="75.55" y="28.57" class="st4" width="8.43" height="8.43"/>
		<rect x="46.74" y="28.57" class="st4" width="8.43" height="8.43"/>
	</g>
</g>
</svg>
