<?xml version="1.0" encoding="utf-8"?>
<!-- Generator: Adobe Illustrator 28.0.0, SVG Export Plug-In . SVG Version: 6.00 Build 0)  -->
<svg version="1.1" id="Camada_1" xmlns="http://www.w3.org/2000/svg" xmlns:xlink="http://www.w3.org/1999/xlink" x="0px" y="0px"
	 viewBox="0 0 96 96" style="enable-background:new 0 0 96 96;" xml:space="preserve">
<style type="text/css">
	.st0{fill:#75C200;stroke:#FFFFFF;stroke-width:5;stroke-miterlimit:10;}
	.st1{fill:#FFFFFF;}
</style>
<path class="st0" d="M77.9,93H18.1C9.8,93,3,86.2,3,77.9V18.1C3,9.8,9.8,3,18.1,3h59.7C86.2,3,93,9.8,93,18.1v59.7
	C93,86.2,86.2,93,77.9,93z"/>
<g>
	<path class="st1" d="M52.3,25.1l-0.1,0.1v0.1c0,0,0,0,0.1,0s0.1,0,0.1,0s0,0,0-0.1C52.4,25.1,52.3,25,52.3,25.1L52.3,25.1z"/>
	<path class="st1" d="M52.8,24.5c0,0-0.1,0.1-0.2,0.1c0,0-0.1,0-0.1,0.1s-0.1,0.1-0.1,0.2c0,0,0,0.2,0.1,0.2s0.1,0,0.2-0.1
		c0,0,0.5-0.4,0.5-0.5c0.1-0.1,0.1-0.2,0.3-0.3c0.2-0.1,0.3-0.1,0.4-0.2s0.1,0,0.1-0.2c0-0.1,0.1-0.5,0.1-0.6s0-0.2-0.1-0.2
		s-0.5,0.1-0.6,0.2s-0.3,0.3-0.3,0.4s-0.1,0.3-0.2,0.3c0,0.1-0.1,0.1,0,0.1c0,0,0.1,0,0.1,0.1c0,0,0,0,0,0.1
		C53,24.4,52.8,24.5,52.8,24.5z"/>
	<path class="st1" d="M54.6,23.6l-0.2,0.1l-0.1,0.1c0,0,0.2,0,0.2-0.1S54.6,23.7,54.6,23.6S54.7,23.5,54.6,23.6z"/>
	<path class="st1" d="M54.1,24C54,24.1,54,24.1,54,24.2c-0.1,0.1-0.1,0.1-0.1,0.1s0,0,0.1,0s0.1,0,0.2-0.1
		C54.3,24.1,54.2,23.9,54.1,24z"/>
	<path class="st1" d="M53.7,24.5c-0.1,0-0.2,0.1-0.2,0.1s-0.2,0.1,0,0C53.7,24.6,53.6,24.6,53.7,24.5L53.7,24.5z"/>
	<path class="st1" d="M54.2,22.5L54,22.7c0,0,0.1,0.1,0.2,0.1c0.1-0.1,0.2-0.1,0.3-0.2c0,0,0.1-0.1,0-0.2
		C54.4,22.4,54.3,22.4,54.2,22.5z"/>
	<path class="st1" d="M54.9,22.3c-0.1,0-0.1,0-0.2,0c-0.1,0.1-0.2,0.1-0.1,0.2c0.1,0.1,0.2,0.1,0.3,0.1s0.3,0,0.3,0s0.1-0.1,0.1-0.2
		s-0.1-0.2-0.1-0.2s-0.1,0-0.1,0.1s0,0.1-0.1,0.1S54.9,22.3,54.9,22.3z"/>
	<path class="st1" d="M54.5,22.8L54.4,23c0,0,0,0.1,0.1,0c0.1,0,0.2-0.1,0.2-0.2v-0.1C54.7,22.7,54.5,22.7,54.5,22.8z"/>
	<path class="st1" d="M54.7,23c0,0-0.1,0-0.2,0.1c0,0.1-0.1,0.1,0,0.1s0.1,0,0.2,0C54.8,23.1,54.8,23,54.7,23
		C54.8,23,54.7,22.9,54.7,23z"/>
	<path class="st1" d="M54.8,23.1v0.1l0.2-0.1c0,0,0.2-0.2,0-0.1S54.8,23.1,54.8,23.1L54.8,23.1z"/>
	<path class="st1" d="M55.5,21.1c0,0.1-0.1,0.1-0.1,0.3s0.1,0.2,0,0.3s-0.1,0-0.1,0.1s-0.1,0.1,0,0.2s0.1,0.1,0.2,0.1s0.1,0,0.1,0
		s0-0.1,0-0.2s0.1-0.1,0.1-0.1s0.1,0,0.1-0.1s0,0,0-0.1s-0.1,0-0.1-0.1s0-0.1,0-0.2c0,0,0-0.1,0-0.2s0-0.1,0-0.1
		C55.7,21.1,55.6,21,55.5,21.1z"/>
	<path class="st1" d="M55.9,21.2c0,0.1,0,0.1,0,0.2s0,0.1,0,0.1H56c0,0,0.1,0,0.2-0.1l0.1-0.1c0,0,0-0.1-0.1-0.1
		C56.1,21.2,56,21.2,55.9,21.2C56,21.2,55.9,21.2,55.9,21.2z"/>
	<path class="st1" d="M56.2,21.6c0,0.1-0.1,0.2-0.1,0.2s-0.1,0.1,0,0.1s0.1,0,0.2-0.1c0.1,0,0.2-0.1,0.1-0.2S56.3,21.5,56.2,21.6z"
		/>
	<path class="st1" d="M55.8,22c0,0-0.2,0-0.1,0.1c0,0.1,0,0.2,0.1,0.2s0.2,0,0.2,0s0.1,0,0.2,0.1c0,0.1,0.1,0,0.2,0
		c0.1,0,0.1,0,0.2,0c0.1-0.1,0.2-0.1,0.2-0.1v-0.1c0,0,0,0,0.1-0.1c0.1,0,0.3-0.1,0.3-0.1s0-0.1-0.1-0.1s-0.1-0.1-0.2,0
		s-0.1,0.1-0.2,0.2c-0.1,0,0,0-0.2,0.1c-0.2,0-0.1,0.1-0.2,0.1S56.1,22,56,22C56,22,55.9,22,55.8,22z"/>
	<path class="st1" d="M56.7,22.4c-0.1,0-0.1,0.1-0.2,0.1c0,0.1-0.2,0-0.1,0.1c0.1,0.1,0,0.1,0.2,0.1s0.2,0,0.3,0s0.2-0.1,0.2-0.2
		s0,0,0-0.1C57,22.4,56.9,22.3,56.7,22.4z"/>
	<path class="st1" d="M56,25.7L56,25.7C55.9,25.7,55.8,25.7,56,25.7C55.8,25.8,55.8,25.8,56,25.7C55.9,25.8,56,25.9,56,25.7
		C56.1,25.8,56,25.7,56,25.7z"/>
	<path class="st1" d="M66.1,27.1C66.1,27.1,66,27.1,66.1,27.1c-0.1,0.2,0,0.2,0,0.3c0,0-0.1,0.1,0,0.1s0.1,0,0.1-0.1v-0.1
		C66.2,27.2,66.2,27.2,66.1,27.1z"/>
	<path class="st1" d="M66.5,65.1c-0.1,0.1-0.2,0.2-0.2,0.2s0.1,0,0.2,0s0.2,0,0.2-0.1c0,0,0.1,0,0-0.1
		C66.6,65.1,66.6,65.1,66.5,65.1z"/>
	<path class="st1" d="M64.6,66.6C64.6,66.7,64.5,66.7,64.6,66.6c-0.1,0.2-0.1,0.2-0.1,0.3s0.1,0,0.1,0l0.1-0.1c0,0,0.1,0.1,0.2,0.1
		v-0.1c0,0-0.2,0-0.1-0.1s0.1-0.1,0.1-0.1s0.1-0.1,0-0.1C64.9,66.4,64.6,66.5,64.6,66.6z"/>
	<path class="st1" d="M59.1,73.8c-0.2,0-0.2,0.1-0.2,0.2s0,0.1,0,0.2s-0.1,0.1-0.1,0.2s0,0.2,0.1,0.2s0.1,0,0.1-0.1s0-0.2,0.1-0.2
		c0.1-0.1,0.1-0.1,0.1-0.1s-0.1,0,0-0.1S59.1,73.9,59.1,73.8C59.2,73.9,59.2,73.8,59.1,73.8z"/>
	<path class="st1" d="M58.7,75.4c0,0.1-0.1,0.1-0.1,0.2s0,0.1,0,0.2s0,0-0.2,0.1c-0.1,0.1-0.1-0.1-0.1,0.1s0,0.2,0,0.2
		s0.1,0.1,0,0.2s-0.2,0-0.3,0.1s-1.4,1.3-1.4,1.3c-0.1,0.1-0.2,0.2-0.2,0.2s-0.2,0.4-0.2,0.6c-0.1,0.2-0.6,1.6-0.6,1.6
		s-0.4,1.1-0.5,1.3c-0.1,0.2-0.3,0.4-0.4,0.6s-1,1-1,1s-0.3,0.2-0.4,0.3c-0.1,0.1-0.3,0.1-0.3,0.2c0,0,0,0.2-0.1,0.2s0-0.2,0-0.3
		s-0.1-0.1-0.1-0.2s0-0.1,0.1-0.1s0.1,0.1,0.2,0.1s0.1,0,0.1-0.1c0.1-0.1,0.1-0.1,0.2-0.1s0.1,0,0.1-0.1s0-0.1,0.1-0.2
		s0.1-0.3,0.2-0.3c0.1,0,0.1,0,0.2-0.1c0.1,0,0.1,0,0.2-0.1s0.1-0.1,0.1-0.2s0-0.1,0.1-0.2c0-0.1,0.2-0.2,0.2-0.3s0-0.2,0-0.2
		c0.1-0.1,0.2-0.1,0.3-0.1c0-0.1,0-0.1,0-0.2s-0.1-0.5,0-0.5s0,0.1,0.1,0.1s0.2,0,0.2-0.2s0-0.3-0.1-0.3s-0.4,0.1-0.4,0.1
		s-0.1,0.2-0.2,0.2s-0.1,0-0.2,0.1s-0.3,0-0.3-0.1l-0.2-0.2c0,0-0.1,0.1-0.1,0.2c0,0,0.1,0.1,0.2,0.1s0.1,0,0.2,0.1s0,0.2-0.1,0.3
		s-0.1,0.1-0.1,0.2s0,0.2,0,0.2s-0.1,0.1-0.1-0.1c0-0.1,0.1-0.3,0-0.2s-0.2,0.2-0.2,0.2s0,0.2,0,0.4c0,0.1,0,0.2,0,0.2
		s-0.2,0-0.2,0.1s0,0.1,0,0.1s0,0-0.1,0s-0.2,0-0.3,0.1s-0.1,0.1-0.1,0.2s0,0.1,0,0.3s-0.2,0.2-0.2,0.2s-0.1,0-0.2,0s-0.1,0.2,0,0.2
		s0.1,0,0.1,0v0.1c0,0-0.1,0.1-0.1,0.2s0.2,0,0.3,0s0.2,0,0.1,0.1s-0.2,0.1-0.3,0.1C52.2,84,52.1,84,52,84.1c0,0.1-0.1,0.1-0.1,0.3
		s-0.1,0.6-0.2,0.9c-0.1,0.2-0.7,1-0.7,1s-0.4,0.4-0.5,0.4c0,0.1,0,0-0.2,0.1c-0.1,0.1-0.2,0.2-0.2,0.2s0-0.8,0-1s0.3-0.4,0.3-0.6
		s0.2-0.3,0.1-0.5c-0.1-0.2-0.5-0.7-0.6-0.9c-0.1-0.2-0.3-0.6-0.6-0.6c-0.2-0.1-0.5-0.2-0.6-0.3s-1.1-0.9-1.2-1s-0.6-0.5-0.7-0.6
		c-0.1-0.1-0.3-0.4-0.5-0.5c-0.2,0-0.3-0.1-0.5,0s0,0.1-0.2,0.2s-0.3,0.2-0.3,0s0-0.2-0.1-0.3S45,80.6,45,80.5c0-0.2,0-0.3-0.1-0.4
		s-0.3-0.1-0.5-0.2s-0.3-0.1-0.4-0.2c-0.1-0.1-0.2-0.3-0.4-0.3c-0.1-0.1-0.3-0.1-0.4-0.1c-0.1-0.1-0.2-0.1-0.2-0.1s0.5-0.4,0.7-0.5
		s0.6-0.5,0.8-0.7s0.8-1.4,1-1.7s0.5-0.6,1-0.9c0.4-0.4,0.6-0.6,1.3-0.8s1.3-0.5,1.6-0.8c0.2-0.3,0.1-0.1,0.3-0.5
		c0.1-0.3,0.2-0.6,0.1-0.9c-0.1-0.3-0.2-0.4-0.1-0.7c0.2-0.3,0.1-0.4,0-0.8c-0.2-0.4,0.1-0.4-0.3-0.5c-0.4-0.1-0.8-0.1-0.9-0.2
		c-0.1-0.1-0.2-0.1-0.2-0.3c0.1-0.2,0.1-1,0.2-1.2s0.3-1.1,0.3-1.2S49,67,49,67c0-0.1,0-0.1-0.3-0.2c-0.2-0.1-0.5-0.4-0.8-0.3
		s-0.3,0.3-0.5,0.3c-0.2,0.1-0.2,0.2-0.3,0.1c-0.2-0.2-0.3,0.1-0.3-0.2c0-0.4-0.3-2.3-0.3-2.5s-0.2-0.5-0.4-0.5
		c-0.1-0.1-0.3-0.3-0.5-0.2s-0.3,0.1-0.4,0.1s-0.1-0.1-0.4-0.1s-2.6,0-2.7,0c0,0-0.2-0.2-0.2-0.4s0.4-1.2,0.4-1.4S42,60,41.8,59.9
		c-0.2-0.2,0.1-0.5,0.1-0.8s-0.4-0.5-0.2-0.7s1-2.4,1-2.7s-0.8-1.2-0.8-1.3c-0.1-0.1-0.4,0.1-0.4-0.1S41,52.8,41,52.7
		s0.2-0.3,0.1-0.4S41,52,40.9,52s-0.7-0.2-1-0.2s-0.2,0.1-0.8,0.2s-1.2,0.1-1.3-0.2S37,50.4,37,50.4s0.4,0,0.4-0.6s-0.1-1.8-0.2-2.2
		c-0.2-0.4-0.3-0.5-0.5-0.6s-0.6-0.3-0.7-0.3c-0.2,0-1.4-0.1-1.4-0.1S34.2,46.1,34,46s-0.6-0.1-0.7-0.2c-0.1-0.2-0.5-0.6-0.7-0.7
		s-0.5,0.2-0.6,0c-0.2-0.2-0.3-0.4-0.5-0.4s-0.8,0-1,0s-0.8-0.5-1-0.7c-0.3-0.2-0.4-0.2-0.4-0.3c-0.1-0.1-0.7-1.1-0.6-1.3
		c0-0.2,0.1-1.3,0.1-1.5c0-0.1-0.6-0.4-0.6-0.4s-1.4,0-1.5,0s-1.1,0.6-1.2,0.6s-1.8,0-1.9,0.1s-0.5,0.2-0.5,0.5s-0.2,0.6-0.3,0.7
		c0,0.1-0.9-0.6-1-0.7c-0.1,0-1.2-0.1-1.6-0.1c-0.5-0.1-0.9,0.2-0.9,0.3c-0.1,0.1-0.4-0.1-0.4-0.4c0.1-0.3-0.1-0.9-0.2-1.1
		s-0.3,0-0.2-0.3s0.1-0.7,0-0.8s-0.1-0.2-0.3,0s-0.5,0.4-0.7,0.6C17.1,40,17,40.1,17,40.3s0.1,0.3-0.2,0.4s-0.4,0.2-0.7,0.2
		c-0.3,0-0.3,0-0.4-0.2c-0.1-0.2-0.6-0.7-0.6-0.7s-0.7-0.1-0.8-0.1s-0.4,0-0.3-0.1c0.1-0.1,0.2-0.4,0.2-0.5
		c-0.1-0.1-0.2-0.2-0.2-0.4s0.1-0.4,0-0.5s-0.4-0.3-0.5-0.4c-0.1-0.1-0.7-0.7-0.7-0.8s0.1-0.2,0-0.4s-0.4-0.3-0.4-0.4
		s0.2-0.1,0.3-0.2s0.1-1.1,0.3-1.2s0.6-0.4,0.8-0.5S14,34.2,14,34s-0.2-0.3-0.1-0.4s0.2-0.6,0.4-0.8s0-0.6,0.3-0.7
		c0.4-0.2,0.3-0.3,0.8-0.5s0.7-0.5,1-0.5s0.7,0,1-0.1s0.5-0.1,0.6-0.3c0.1-0.2,0.1-0.2,0.3-0.1s1,0.1,1,0.2s0.3,0.1,0.5,0.1
		s0.3-0.1,0.4-0.3c0.1-0.2,1-5.4,1-5.4s-0.1-0.5-0.2-0.5s-0.5-0.2-0.5-0.4s0.2-0.3,0-0.6c-0.2-0.2-0.5-0.3-0.5-0.5s-0.1-1,0-1.2
		c0.1-0.1,0.1-0.3,0.3-0.3c0.2,0,0.7,0.2,0.7,0.2s0-0.1,0.1-0.2s0.2-0.3,0.2-0.3s0.1,0,0.1-0.3c-0.1-0.3,0-0.2-0.1-0.4
		s0-0.3-0.2-0.2c-0.1,0,0.1,0.1-0.2,0s-0.2,0-0.3-0.1s-0.2-0.1-0.2-0.3c0-0.2,0-0.3,0.3-0.3s1-0.1,1.2-0.1s0.7,0.1,0.8,0
		c0.1-0.1,0.1-0.2,0.2-0.4c0-0.2,0.1,0.1,0.2,0.3c0.1,0.2,0.3,0.4,0.5,0.3s0.4-0.1,0.4-0.2c0.1-0.1,0.2-0.4,0.2-0.4s0.3,0.1,0.3,0.2
		c0.1,0.1,0.1,0.2,0.1,0.6s0,0.5,0.1,0.6s0.2,0.3,0.4,0.2c0.1-0.1,0.3-0.3,0.4-0.1c0.1,0.1,0.5,0.5,0.8,0.6s0.5,0,0.7,0
		s0.4,0.2,0.6,0c0.2-0.1,0.2-0.4,0.5-0.5s1.1-0.2,1.3-0.4c0.2-0.2,0.2-0.3,0.4-0.3c0.1,0.1,0.4,0.2,0.5,0.1s0.3-0.4,0.4-0.6
		s0-0.4,0.1-0.4s0.4-0.1,0.4-0.2c0.1,0,0.2-0.1,0.3-0.1c0.1,0,0.5-0.1,0.5-0.2s0.2-0.4,0.1-0.5c-0.1-0.1-0.3-0.2-0.5-0.2
		s-0.5,0.1-0.6,0.1s-0.2,0-0.3-0.1c-0.1-0.1-0.2-0.1-0.2-0.2c0-0.2-0.1-0.5-0.1-0.8c0-0.2,0-0.5,0.2-0.6s0.3-0.2,0.2-0.4
		c-0.1-0.3,0-0.3-0.2-0.4s-0.5-0.3-0.5-0.4c0-0.1,0.2-0.1,0.3,0s0.3,0.4,0.5,0.5s0.4,0.1,0.7,0.1c0.2,0,0.2,0.1,0.5,0.1
		s0.6-0.1,0.8-0.2c0.2-0.2,0.2-0.4,0.5-0.4s1,0,1.3-0.1s0.8-0.1,0.8-0.3c0-0.1,0-0.3,0.2-0.4c0.3-0.1,0.7-0.2,0.8-0.3
		s0.4-0.3,0.4-0.4s0-0.4,0.1-0.4s0.1,0.1,0.3,0.1s0.2-0.3,0.3-0.1s0,0.4,0,0.6s-0.1,0.6-0.1,0.7c0,0.1,0.3,0.1,0.4,0.2
		c0.1,0.1,0.4,0.2,0.5,0.3s0.2,0.4,0.1,0.5c-0.2,0.1-0.3,0.1-0.4,0.3s0,0.5-0.1,0.7s-0.2,0.5-0.2,0.6s0,0.3,0,0.5s0.4,0.6,0.5,0.7
		s0.1,0.5,0.1,0.7s0.3,0.4,0.5,0.6c0.1,0.2,0.4,0.5,0.5,0.5s0.3,0,0.4,0.2s0.2,0.3,0.5,0.3s0.7,0,0.7-0.2s-0.2-0.4,0-0.4
		s0.4-0.2,0.4-0.2s0.2,0.2,0.3,0.1S42,20,42.2,20s0.3-0.2,0.4-0.2s0.3-0.1,0.4-0.2c0.1-0.1,0-0.1,0.1-0.1s0.3,0.4,0.6,0.4
		s0.5,0,0.6-0.1s0.1-0.2,0.2-0.2s0.5,0.2,0.7,0.1s0.6-0.1,0.6-0.2s0-0.5-0.1-0.5s-0.1-0.4,0.1-0.2c0.1,0.1,0.5,0.1,0.8,0.1
		s0.1-0.2,0.4-0.1c0.3,0.1,0.4,0,0.5,0.1s0.2,0.5,0.5,0.7s0.3,0.2,0.7,0.3c0.4,0,0.6,0,0.7-0.1s0.2-0.2,0.6-0.2s0.6-0.1,0.8-0.2
		s0.7-0.6,0.9-0.8c0.2-0.2,0.2-0.7,0.2-0.7s0.4-1,0.5-1.2s0.3-0.3,0.3-0.4s0.1-0.1,0.1-0.3c0.1-0.2,0.1-0.3,0.1-0.3s0.2-0.1,0.3-0.2
		c0.1-0.1,0.1-0.2,0.2-0.2c0,0.1,0,0.1,0,0.1s0.1-0.4,0.2-0.3c0.1,0.1,0.6,0.4,0.6,0.8c0,0.4,0,0.4,0,0.4s0.1-0.3,0.2-0.2
		c0.1,0.1,0.2,0.3,0.2,0.5s0,0.5,0.1,0.8s0.4,1,0.5,1.4s0.1,0.5,0.1,0.6s0.2,0.4,0.2,0.4s0.1,0,0.2,0c0.1,0,0.2,0,0.3,0
		s0.3,0,0.3,0.1s0,0.4,0,0.5s0,0.3,0,0.3s-0.1,0-0.2,0.1C56,20.9,56,21,56,21.1s0,0.1-0.1,0.2s-0.2,0.2-0.2,0.3c0,0.1,0,0.1-0.1,0.2
		s-0.1,0.1-0.3,0.3s-0.4,0.6-0.5,0.6s-0.3,0.2-0.4,0.2c-0.1,0-0.2,0.2-0.2,0.2s-0.1,0.2-0.2,0.2c-0.1,0.1-0.2,0.2-0.2,0.2
		s-0.2,0.1-0.3,0.2s-0.2,0.2-0.3,0.4c-0.1,0.2-0.2,0.2-0.2,0.3c0,0.1-0.1,0.2-0.2,0.2s-0.1,0.2-0.1,0.2s-0.1,0.1-0.1,0.2
		s-0.1,0.1-0.2,0.1v0.2c0,0-0.2,0.1-0.2,0.2s-0.1,0.1,0,0.2s0.1,0.2,0.2,0.1s0.2,0.1,0.3,0s0.2-0.1,0.3-0.2s0.2,0,0.2-0.2
		c0.1-0.1,0.1-0.2,0.2-0.2c0.1,0,0.1,0,0.2,0c0.1,0,0.3-0.1,0.3-0.2c0,0,0.2-0.1,0.2-0.2c0.1,0,0.1,0,0.2,0s0.2-0.1,0.2-0.1
		s0.1,0,0.1,0.1s0,0.2,0,0.3c0,0.1-0.1,0.1,0,0.1s0.2,0,0.2-0.2c0-0.1-0.1-0.2-0.1-0.3s0,0,0-0.1c0.1-0.1,0.2-0.1,0.2-0.1
		c0-0.1,0-0.1,0-0.2s0-0.2,0-0.3c0,0,0-0.2,0.1-0.3s0-0.2,0.2-0.3s0.2-0.1,0.2-0.2l0.2-0.1c0,0,0,0,0.2,0s0.3,0,0.4,0
		c0.1,0,0,0,0.2,0s0.3,0,0.4,0s0.2,0,0.3-0.1c0.1,0,0.2-0.1,0.3-0.1s0.1-0.1,0.2,0c0.1,0.1,0,0.1,0.1,0.1s0.2,0.1,0.3,0.1
		s0-0.1,0.2,0s0.4,0.2,0.4,0.2s0,0.2-0.1,0.3s-0.1,0.2-0.1,0.3c0,0.1,0,0.1,0,0.2s0,0.1-0.1,0.1c0,0.1-0.1,0.1-0.1,0.2
		s0,0.1-0.1,0.2c-0.1,0-0.1,0.1-0.1,0.2s0,0.4,0,0.4c0,0.1-0.1,0.1-0.2,0.1c-0.1,0-0.3,0.1-0.4,0.2s-0.2,0.2-0.3,0.2c0,0,0,0-0.2,0
		c-0.1,0-0.2,0-0.2,0.1c-0.1,0-0.1,0-0.2,0c-0.1,0-0.1,0-0.2,0c-0.1,0-0.1,0-0.2,0c0,0-0.1,0-0.2,0s0-0.1-0.1,0s-0.2,0.1-0.2,0.1
		s-0.1-0.1-0.1,0c-0.1,0.1,0,0.1-0.1,0.1s-0.2,0-0.2,0s0-0.2-0.1-0.1S55,25.8,55,25.8s-0.1,0-0.2-0.1c0,0-0.1-0.2-0.2-0.2l-0.1,0.1
		c0,0-0.1,0.1-0.2,0.1c0,0-0.1,0.1,0,0.2c0,0,0.1,0.1,0.2,0c0,0,0.3-0.1,0.3,0c0,0,0.3-0.1,0.3,0s0,0.1,0,0.2s0,0.1,0,0.1
		s0-0.1,0.1-0.1s0.1,0,0.1,0s-0.2-0.2-0.1-0.3c0.1,0,0.2,0,0.2,0c0.1,0,0.1,0,0.2,0c0.1,0,0.2,0,0.3,0s0.1,0,0.2,0
		c0.1-0.1,0-0.1,0.1-0.1s0.2,0,0.2,0s0.1,0,0.2,0c0.1,0.1,0.1,0.1,0.2,0.1s0.2-0.2,0.2-0.2s0.2-0.1,0.2,0s0,0.1,0,0.2
		S57.1,26,57,26.1c-0.1,0-0.2,0.1-0.2,0.2l-0.1,0.1c0,0,0,0.1,0,0.2v0.2l-0.1,0.1V27c0,0,0.1,0,0.2,0s0.1-0.1,0-0.2
		c0-0.1,0-0.3,0-0.3h0.1c0,0,0,0,0-0.1s0-0.1,0.1-0.2s0.1-0.1,0.2-0.1s0-0.1,0.1-0.2c0-0.1,0-0.1,0-0.2s0-0.1,0.1-0.2
		s0.2-0.2,0.2-0.2s0.1-0.2,0.1-0.1c0,0,0,0.1,0.1,0.1s0.1,0,0.1-0.1v-0.1c0,0,0-0.1,0.1-0.1c0.1,0.1,0.2,0.1,0.2,0.2v0.1
		c0,0,0-0.1,0.1-0.1s0.2,0,0.2-0.1s0,0-0.1-0.1s-0.1-0.2-0.1-0.2s0.1,0,0.1-0.1s-0.1-0.1-0.1-0.2s0.1-0.2,0.1-0.2s0.2,0.1,0.2,0
		c0,0-0.1-0.2,0-0.2c0,0,0.2-0.2,0.3-0.3s0.2-0.2,0.2-0.2s0,0.1,0.1,0.1s0.1-0.1,0.2-0.1c0,0,0.1,0.1,0.2,0.1c0,0,0-0.2,0.1-0.1
		c0.1,0,0.1,0.2,0.1,0.1c0,0,0-0.1,0.1-0.1c0,0,0,0.1,0.1,0.1s0.3-0.2,0.3-0.1s0,0.2,0,0.2s0.1-0.2,0.2-0.1s-0.1,0.1,0,0.2
		c0.1,0,0.1-0.1,0.2,0s0,0.1,0.1,0.1c0,0,0.2-0.1,0.2,0v0.1c0,0,0.2-0.1,0.2,0s-0.1,0.1,0,0.1s0.1-0.1,0.2,0s0,0.2,0.1,0.3
		c0.1,0.1,0.3,0,0.4,0c0.1,0,0.1-0.1,0.2-0.1c0.1,0,0.1,0.1,0.2,0.2s0.2,0,0.3,0s0.2-0.1,0.2,0.1s0,0.2,0,0.2c-0.1,0,0,0,0,0
		S62.9,25,63,25c0.1,0,0.1-0.1,0.2-0.1s0.1-0.1,0.1,0s0,0.1,0.1,0.2c0,0,0.1,0.1,0.2,0.1h0.1c0,0,0.1,0,0.1-0.1L64,25
		c0,0,0.1,0,0.1,0.1c0,0-0.1,0-0.1,0.1l-0.1,0.1c0,0,0,0,0,0.1c0,0,0,0,0,0.1s-0.1,0-0.1,0.1s-0.1,0.2,0,0.2s0.1,0.1,0.1,0.1v-0.1
		l0.1-0.1c0,0,0,0,0.1,0s0.1-0.1,0.1-0.1h0.1v-0.1c0,0-0.2,0-0.1,0s0.1,0.1,0.2,0.1c0,0,0,0,0.1,0h0.1c0,0,0,0,0.1-0.1
		s0.2-0.1,0.2,0s0,0.1,0,0.1s0.1,0.1,0.1,0c0,0,0-0.1,0.1,0s0.1,0.1,0.1,0.1v0.1h0.1v0.1c0,0,0,0,0,0.1c0,0,0,0,0.1,0.1
		s0.1,0.1,0.1,0.1c0.1,0.1,0.1,0.1,0.1,0.2s0.1,0.1,0,0.1s-0.3,0.1-0.3,0.2s-0.1,0.1-0.1,0.1c0.1,0.1,0.1,0.1,0.2,0s0.2-0.2,0.3-0.2
		c0.1,0,0.2,0.2,0.2,0.2L65.8,27c0,0,0.1,0,0,0.1s-0.1,0-0.1,0.1s0,0-0.1,0.1c0,0.1,0,0.1,0,0.2s0,0.1-0.1,0.1c0,0-0.1,0,0,0.1
		c0,0.1,0.1,0.1,0.1,0.2s0.1,0.1,0.1,0.1s-0.1,0.1,0.1,0.1c0.1,0,0.2,0.1,0.3,0c0-0.1,0-0.1-0.1-0.2c0-0.1,0-0.1,0-0.1v-0.1v-0.1
		c0,0,0.1,0,0.1,0.1c0,0,0,0.1,0.1,0.1c0,0,0.2,0,0.3-0.1s0.1-0.2,0.2-0.2s0.2-0.2,0.2-0.2H67c0.1,0,0.2,0.1,0.2,0.1
		c0.1,0,0.1,0,0.2,0c0,0,0.1-0.1,0.2-0.1s0,0,0-0.1s-0.1-0.1,0-0.1c0,0,0.3,0,0.4,0s0.2,0.1,0.3,0.2c0.1,0.1,0.3,0.2,0.4,0.2
		s0.2,0,0.2,0.1c0.1,0.1,0.1,0.2,0.2,0.2s0.2,0.1,0.3,0.1s0.2,0,0.2,0s0.1,0,0.2,0l0,0c0.1,0,0.1,0,0.1,0s0,0,0.1,0s0.1,0,0.1,0
		s-0.1-0.1,0-0.1s0.2,0,0.2,0.1c0.1,0,0.1,0,0.3,0.1c0.2,0.1,0.3,0.1,0.5,0.1s0.5,0,0.6,0s0.3,0,0.4,0s0.4,0,0.6,0
		c0.3,0,0.4-0.1,0.6-0.1s0.2-0.1,0.4-0.1s0.6,0.2,0.8,0.4c0.2,0.1,0.4,0.3,0.5,0.3s0.2,0,0.3,0.1c0.1,0.1,0.7,0.6,0.8,0.7
		c0.1,0.1,0.4,0.3,0.6,0.4s0.4,0.3,0.6,0.5s0.3,0.3,0.3,0.4c0.1,0,0.2,0,0.2,0.1s0.1,0.1,0.1,0.3s0.1,0.2,0.2,0.3s0.4-0.1,0.5,0
		s0.3,0.3,0.4,0.4s0.3,0.2,0.4,0.2s0.4,0.3,0.6,0.3c0.1,0,0.9,0,1,0.1s0.5-0.1,0.6,0c0.1,0,0.6,0.1,0.7,0.3s0.2,0.2,0.3,0.5
		c0.1,0.3,0,0.4,0.1,0.7s0.1,0.3,0.2,0.6s0.3,0.9,0.3,1.1c0,0.2,0.1,0.8,0.1,1.2c0,0.3-0.3,1.5-0.3,1.6c0,0.2-0.3,0.8-0.3,0.9
		c-0.1,0.1-0.4,0.8-0.5,0.9c-0.1,0.2-0.5,0.5-0.6,0.7c-0.2,0.2-0.5,0.4-0.5,0.5c-0.1,0.1,0,0.1-0.1,0.3c-0.1,0.1,0,0.1-0.2,0.3
		s-0.5,0.4-0.6,0.5s-0.3,0.3-0.6,0.4s-0.4,0.2-0.4,0.2s0,0.1-0.1,0.2c0,0.1-0.1,0.1-0.1,0.1c-0.1,0-0.1-0.1-0.1-0.1h-0.1
		c0,0.1,0.1,0.1,0.1,0.2c0,0,0,0,0,0.2s-0.1,0.1-0.1,0.2h-0.1c0,0,0,0,0,0.1c0,0,0,0,0.1,0.1c0,0,0.1,0,0,0.1s-0.1,0.2-0.1,0.3
		s-0.1,0.1-0.1,0c0,0,0,0-0.1-0.1l0,0c0,0,0,0.1,0,0.2s0,0.1,0,0.1c0,0.1-0.5,0.8-0.6,0.9c-0.1,0.2-0.2,0.4-0.3,0.5
		c-0.1,0.1-0.4,0.3-0.4,0.4c-0.1,0.1-0.2,0.2-0.2,0.2s-0.2,0.1-0.2,0s-0.1-0.2,0-0.2s0.1,0,0.1-0.1s0-0.1-0.1-0.1
		c-0.1-0.1-0.1,0-0.1,0c-0.1,0,0-0.2-0.1-0.2s-0.1,0.1-0.1,0.2h-0.2c0,0.1,0,0,0.1,0.1s0.1,0.2,0,0.2s-0.2,0-0.1,0.1s0.1,0,0.1,0.1
		L76.3,47c-0.1,0-0.1,0-0.1,0.1s-0.1,0.1-0.1,0.1s-0.1,0-0.1,0.1s0.1,0.1,0.1,0.1v0.1H76c0,0-0.1,0,0,0.1s0.1,0,0.1,0.2
		c0,0.1,0,0.1-0.1,0.1s-0.1,0-0.1,0.1s0.1,0.1,0.2,0.1c0,0,0,0,0,0.1c-0.1,0-0.1,0.1-0.1,0.2s0.1,0.1,0.1,0.1s0,0.1-0.1,0.3
		c0,0.2,0,0.3,0,0.4c0,0.1,0,0.2-0.1,0.3S76,48.8,76,49s0.1,0.3,0.1,0.4c0.1,0.1,0.1,0.2,0.1,0.3s0,0.1,0,0.1l0.1,0.1
		c0,0-0.2,0-0.2,0.1s0.1,0.1,0.1,0.2s-0.2,0.3-0.1,0.5s0.2,0.5,0.2,0.7s0,0.4-0.1,0.5S76,52.1,76,52.2c0,0.1,0,0.2-0.1,0.4
		c0,0.2-0.1,0.3-0.1,0.5s0,0.5,0,0.7c-0.1,0.2-0.2,0.4-0.1,0.5c0,0.2,0.1,0.1,0.1,0.3c0.1,0.2,0,0.3-0.1,0.5s-0.6,0.4-0.7,0.5
		s-0.1,0.5-0.1,0.6s0,1.4,0,1.5s0,0.3-0.1,0.5c-0.2,0.2-0.3,0.4-0.4,0.4c-0.1,0.1-0.2,0.1-0.3,0.2c-0.1,0.1-0.3,0.3-0.3,0.5
		s-0.2,0.7-0.2,0.9s-0.1,0.3-0.2,0.4c-0.1,0.1-0.3,0.2-0.4,0.3c-0.1,0.2-0.2,0.4-0.3,0.5c-0.1,0.2-0.2,0.2-0.3,0.4
		c-0.1,0.2-0.1,0.8-0.1,0.8s0,0.1,0,0.2c0.1,0.1,0.1,0.2,0,0.2s-0.5,0.3-0.6,0.4c-0.2,0-0.5,0-0.6,0.1s-0.3,0.3-0.4,0.4
		c-0.1,0.1-0.1,0.2-0.1,0.3v0.2c0,0,0-0.1,0,0s0.1,0.2,0,0.2s-0.2,0.2-0.2,0.2c0,0.1,0.1,0.1-0.1,0s-0.2-0.1-0.3,0
		c-0.1,0-0.1,0.1-0.1,0s0-0.1-0.1-0.1c-0.1-0.1-0.2-0.1-0.2-0.1c-0.1,0-0.1-0.1-0.2,0s-0.1,0.1-0.1,0.1h-0.1c0,0-0.1,0-0.2,0
		s-0.3,0-0.3,0s-0.2,0-0.2-0.1c0,0,0.1-0.1,0.1-0.2s0-0.1-0.1-0.2c-0.1,0-0.1-0.1-0.2,0s-0.2,0.1-0.2,0.1c0,0.1,0,0.2,0,0.2
		c-0.1,0.1,0,0.2-0.2,0.1s-0.4-0.1-0.5-0.1s-0.2,0-0.2,0s0-0.1-0.1,0C67.2,65,67,65,67,65.1s-0.2,0.1-0.2,0.1s-0.1-0.1,0-0.1
		c0,0,0.1,0.1,0.2,0s0.2-0.1,0.3-0.2c0-0.1,0-0.1-0.1-0.1s-0.1,0-0.2,0s-0.1,0-0.2,0.1c0,0.1,0,0.1-0.1,0.1c0,0,0,0-0.1,0
		s0,0-0.1,0.1c-0.1,0-0.1,0-0.1,0l0.1-0.2c0,0,0-0.1-0.1-0.1s-0.4,0-0.5,0.2c-0.1,0.1-0.1,0.3,0,0.4s0.2-0.1,0.3,0
		c0.1,0.1-0.1,0-0.1,0.1c-0.1,0.1,0,0.2-0.2,0.2s-0.3,0-0.4,0.1c0,0-0.1-0.2-0.2-0.1c0,0-0.2,0.1-0.3,0.2s-0.2,0.2-0.2,0.2
		s0,0.1-0.2,0.1c-0.1,0-0.1,0-0.2,0.1s-0.1,0.1,0,0.2c0,0.1,0.1,0.1,0,0.2s-0.1-0.1-0.1,0s0.1,0.1,0,0.2s-0.1,0-0.2-0.1
		s-0.1-0.1-0.2-0.1c-0.1,0-0.1,0-0.2,0c0,0-0.1-0.1-0.3,0c-0.2,0-0.3,0.1-0.4,0.2c0,0.1-0.1,0.1-0.1,0.2s0,0.2-0.1,0.2
		s-0.3-0.2-0.3-0.2s-0.1,0.1-0.1,0.2c0,0-0.1-0.2-0.3,0c-0.2,0.1-0.5,0.7-0.7,0.8c-0.1,0.1-0.2,0.2-0.4,0.3
		c-0.1,0.1-0.2,0.1-0.4,0.2c-0.1,0.1-0.3,0.2-0.4,0.3C60.1,69,60,69,59.9,69s-0.2,0.2-0.3,0.2c0,0.1-0.1,0.1-0.1,0.2s0,0.1,0,0.2
		s0.1,0.1,0.1,0.1s0.1,0-0.1,0.1S59.3,70,59.2,70c-0.1,0.1-0.2,0.2-0.2,0.2c0,0.1,0,0.1-0.1,0S59,70,59,70c0-0.1-0.1,0-0.2,0
		c-0.1,0-0.1-0.2-0.1-0.2h-0.1c0,0,0,0.1,0,0.2s0,0.1-0.1,0.1s0-0.1-0.1-0.1c-0.1,0.1-0.2-0.1-0.2,0.1c0,0.1,0,0.1,0.2,0.1
		c0.1,0,0.2,0,0.2,0.1s0.1,0,0.1,0.1c0,0-0.1,0.1-0.2,0.2s-0.1,0.2-0.1,0.3c0,0.1-0.1,0.1-0.1,0.1c0,0.1,0,0,0,0.1c0,0,0,0,0,0.2
		s0,0.2,0,0.3c0,0.1,0,0.1-0.1,0.2s-0.3,0.1-0.3,0.2s0,0.1,0.2,0s0.2-0.2,0.2-0.2c0.1,0.1,0.1,0.1,0,0.2s-0.1,0.2-0.2,0.3
		c0,0.1-0.2,0.3-0.1,0.5s0,0.2,0.1,0.3s0.1,0,0,0.2s0,0.2,0,0.3c0,0.1,0.1,0.1,0.1,0.1l0.1-0.1c0,0,0.2,0.1,0.1,0.2s-0.2,0-0.3,0.1
		s0,0.2,0,0.3c0,0.1,0,0.2,0,0.2c0,0.1-0.1,0-0.1,0.2s0,0.2,0,0.3s0.1,0.1,0.1,0.2s0,0.4,0,0.6"/>
</g>
</svg>
