<?xml version="1.0" encoding="utf-8"?>
<!-- Generator: Adobe Illustrator 28.0.0, SVG Export Plug-In . SVG Version: 6.00 Build 0)  -->
<svg version="1.1" id="Camada_1" xmlns="http://www.w3.org/2000/svg" xmlns:xlink="http://www.w3.org/1999/xlink" x="0px" y="0px"
	 viewBox="0 0 96 96" style="enable-background:new 0 0 96 96;" xml:space="preserve">
<style type="text/css">
	.st0{fill:none;stroke:#75C200;stroke-width:5;stroke-miterlimit:10;}
	.st1{fill:#FFFFFF;}
</style>
<circle class="st0" cx="48" cy="48" r="45.02"/>
<g>
	<path class="st1" d="M52.29,25.12c0,0-0.1,0.07-0.13,0.09c-0.02,0.02-0.05,0.07,0,0.09c0.05,0.02,0.05-0.02,0.13,0
		c0.08,0.02,0.09,0.02,0.13-0.04c0.04-0.05,0.05-0.05,0.04-0.09c-0.02-0.04-0.15-0.14-0.16-0.1C52.29,25.12,52.29,25.12,52.29,25.12
		z"/>
	<path class="st1" d="M52.84,24.54c-0.05,0.05-0.1,0.07-0.16,0.09c-0.05,0.02-0.09,0.02-0.13,0.1c-0.04,0.09-0.1,0.15-0.08,0.2
		c0.02,0.05,0.05,0.18,0.07,0.19c0.02,0.01,0.13-0.03,0.17-0.06c0.05-0.03,0.45-0.37,0.52-0.45c0.06-0.07,0.14-0.19,0.3-0.27
		c0.16-0.09,0.3-0.13,0.37-0.22c0.07-0.09,0.09-0.05,0.13-0.19c0.05-0.14,0.06-0.5,0.07-0.65c0.01-0.15,0.01-0.21-0.09-0.17
		c-0.1,0.04-0.45,0.14-0.56,0.24c-0.11,0.1-0.33,0.29-0.35,0.39c-0.02,0.1-0.12,0.26-0.15,0.32c-0.03,0.06-0.09,0.11-0.05,0.14
		c0.04,0.03,0.08,0.03,0.08,0.07c0,0.04,0.01,0.04-0.01,0.09C52.95,24.44,52.84,24.54,52.84,24.54z"/>
	<path class="st1" d="M54.59,23.57c0,0-0.2,0.09-0.23,0.14c-0.03,0.05-0.1,0.13-0.06,0.14c0.04,0.01,0.18-0.02,0.25-0.07
		c0.07-0.05,0.13,0,0.13-0.07C54.68,23.64,54.67,23.53,54.59,23.57z"/>
	<path class="st1" d="M54.14,24.02c-0.06,0.1-0.07,0.09-0.13,0.16c-0.06,0.06-0.11,0.13-0.11,0.13s0.02,0.05,0.11-0.01
		c0.09-0.06,0.11-0.01,0.18-0.12C54.26,24.06,54.2,23.94,54.14,24.02z"/>
	<path class="st1" d="M53.66,24.49c-0.08,0.03-0.2,0.09-0.2,0.11s-0.23,0.09,0,0.02c0.23-0.06,0.17,0.02,0.23-0.06
		C53.74,24.47,53.7,24.47,53.66,24.49z"/>
	<path class="st1" d="M54.19,22.51c0,0-0.24,0.2-0.25,0.25c-0.01,0.05,0.08,0.13,0.17,0.06c0.08-0.07,0.21-0.13,0.26-0.19
		c0.05-0.05,0.07-0.11,0.05-0.16C54.4,22.43,54.28,22.43,54.19,22.51z"/>
	<path class="st1" d="M54.88,22.3c-0.11,0.01-0.13-0.03-0.2,0.04c-0.07,0.07-0.16,0.11-0.06,0.17c0.09,0.06,0.16,0.09,0.27,0.1
		c0.1,0.01,0.29-0.01,0.32-0.05c0.03-0.04,0.12-0.09,0.13-0.16c0.01-0.06-0.08-0.23-0.12-0.23c-0.04,0-0.09,0.01-0.13,0.07
		c-0.04,0.06-0.05,0.09-0.09,0.08S54.88,22.3,54.88,22.3z"/>
	<path class="st1" d="M54.48,22.81c-0.03,0.04-0.14,0.19-0.14,0.21s0.01,0.07,0.07,0.03c0.06-0.04,0.17-0.12,0.2-0.16
		c0.03-0.04,0.03-0.09,0.03-0.09S54.55,22.72,54.48,22.81z"/>
	<path class="st1" d="M54.65,23.01c-0.03,0.03-0.14,0.02-0.15,0.11c-0.01,0.08-0.09,0.14,0,0.13c0.09-0.02,0.07,0.05,0.15-0.05
		c0.09-0.1,0.12-0.19,0.12-0.19S54.72,22.93,54.65,23.01z"/>
	<path class="st1" d="M54.77,23.12v0.14l0.16-0.14c0,0,0.22-0.17,0.03-0.08c-0.19,0.08-0.14,0.03-0.14,0.03L54.77,23.12z"/>
	<path class="st1" d="M55.55,21.09c-0.03,0.06-0.07,0.14-0.07,0.3c0,0.16,0.09,0.23,0.04,0.26c-0.05,0.03-0.11,0.04-0.14,0.13
		c-0.03,0.09-0.09,0.1-0.04,0.19c0.05,0.09,0.11,0.13,0.15,0.15c0.04,0.02,0.09,0.03,0.1,0c0.02-0.03-0.04-0.14,0.03-0.17
		c0.07-0.03,0.11-0.08,0.14-0.08c0.03,0,0.07-0.05,0.07-0.08c0-0.03,0.02-0.01-0.03-0.08s-0.08-0.05-0.08-0.14
		c0-0.09-0.02-0.13,0.01-0.16c0.02-0.04,0.03-0.11,0.02-0.16c-0.01-0.05-0.02-0.13-0.05-0.15C55.67,21.06,55.59,20.99,55.55,21.09z"
		/>
	<path class="st1" d="M55.92,21.24c0,0.06,0.02,0.12,0,0.18c-0.02,0.06-0.04,0.1,0.01,0.11c0.04,0.01,0.09,0.02,0.12,0
		c0.03-0.02,0.14-0.05,0.16-0.1c0.02-0.05,0.06-0.08,0.07-0.11c0.01-0.03-0.02-0.13-0.08-0.11c-0.06,0.02-0.23,0-0.23,0
		S55.92,21.17,55.92,21.24z"/>
	<path class="st1" d="M56.23,21.63c-0.03,0.08-0.08,0.16-0.1,0.19c-0.02,0.03-0.07,0.12,0,0.13c0.07,0.01,0.08-0.03,0.16-0.07
		c0.08-0.04,0.18-0.09,0.09-0.16C56.29,21.65,56.27,21.53,56.23,21.63z"/>
	<path class="st1" d="M55.83,22.03c-0.04,0.04-0.17-0.03-0.14,0.09c0.02,0.12-0.02,0.18,0.07,0.21c0.09,0.03,0.19-0.02,0.24,0
		c0.05,0.02,0.1,0,0.15,0.06c0.05,0.06,0.08,0.03,0.15,0.05c0.07,0.02,0.08,0.03,0.16-0.05c0.08-0.08,0.2-0.11,0.23-0.15
		c0.03-0.04-0.03-0.09,0-0.15c0.03-0.06-0.04-0.02,0.09-0.07c0.13-0.04,0.26-0.08,0.26-0.13s-0.02-0.13-0.14-0.13
		c-0.12,0-0.13-0.07-0.22,0c-0.09,0.07-0.09,0.15-0.16,0.18c-0.08,0.03,0.01,0.05-0.15,0.09c-0.17,0.04-0.14,0.1-0.22,0.06
		c-0.08-0.04-0.1-0.06-0.14-0.06C55.96,22.04,55.91,21.96,55.83,22.03z"/>
	<path class="st1" d="M56.71,22.36c-0.09,0.04-0.09,0.08-0.15,0.14c-0.05,0.06-0.15,0.05-0.09,0.11c0.06,0.06,0.04,0.09,0.16,0.11
		c0.12,0.02,0.24,0.01,0.33,0c0.09-0.01,0.18-0.11,0.19-0.18c0.01-0.07,0.05-0.03-0.02-0.1C57.04,22.38,56.92,22.27,56.71,22.36z"/>
	<path class="st1" d="M55.95,25.73c-0.02,0-0.09-0.02-0.13,0c-0.04,0.02-0.07-0.04-0.04,0.02c0.03,0.06,0,0.07,0.08,0.07
		c0.08,0,0.12,0.04,0.17,0C56.07,25.78,56.03,25.74,55.95,25.73z"/>
	<path class="st1" d="M66.13,27.15c-0.03-0.02-0.08,0-0.07,0.08c0.01,0.08,0.04,0.15,0.03,0.18c0,0.02-0.07,0.09,0,0.07
		c0.07-0.02,0.08-0.05,0.09-0.08c0.01-0.02-0.01-0.07,0-0.11C66.19,27.25,66.22,27.22,66.13,27.15z"/>
	<path class="st1" d="M66.53,65.13c-0.09,0.07-0.18,0.15-0.16,0.16c0.02,0.01,0.07,0.01,0.16,0c0.09-0.01,0.19-0.02,0.21-0.05
		c0.02-0.03,0.12-0.03,0-0.08C66.63,65.11,66.63,65.06,66.53,65.13z"/>
	<path class="st1" d="M64.57,66.61c-0.03,0.11-0.12,0.08-0.14,0.13c-0.02,0.05-0.03,0.11,0,0.15c0.03,0.04,0.14,0,0.14,0
		s0.08-0.11,0.13-0.08s0.14,0.09,0.18,0.05c0.04-0.04,0-0.11,0-0.11s-0.21-0.03-0.09-0.1s0.12-0.07,0.12-0.07s0.11-0.06,0.04-0.12
		C64.87,66.42,64.58,66.54,64.57,66.61z"/>
	<path class="st1" d="M59.07,73.82c-0.16,0.03-0.22,0.1-0.2,0.16c0.02,0.06,0.03,0.11,0,0.19c-0.03,0.08-0.1,0.06-0.08,0.17
		c0.02,0.11-0.03,0.19,0.06,0.16c0.09-0.02,0.1-0.02,0.12-0.12s-0.01-0.15,0.07-0.19c0.08-0.05,0.12-0.08,0.11-0.12
		c-0.01-0.04-0.06-0.04-0.02-0.08c0.04-0.04,0.02-0.04,0.02-0.08C59.15,73.86,59.15,73.8,59.07,73.82z"/>
	<path class="st1" d="M58.67,75.38c-0.02,0.1-0.1,0.06-0.12,0.16c-0.02,0.09,0.04,0.12,0,0.2c-0.04,0.08-0.03,0.02-0.15,0.09
		c-0.12,0.06-0.09-0.07-0.12,0.06c-0.03,0.13,0,0.21,0,0.25c0,0.04,0.09,0.05-0.01,0.17c-0.1,0.12-0.18,0.01-0.27,0.09
		c-0.09,0.08-1.36,1.29-1.42,1.35c-0.06,0.06-0.19,0.17-0.22,0.21c-0.03,0.04-0.15,0.37-0.22,0.57c-0.08,0.2-0.62,1.6-0.62,1.6
		s-0.42,1.12-0.52,1.27c-0.09,0.16-0.28,0.42-0.44,0.56c-0.16,0.14-0.96,0.96-1.02,1.01s-0.32,0.23-0.39,0.28
		c-0.08,0.05-0.27,0.14-0.28,0.16c-0.01,0.02-0.05,0.23-0.1,0.18c-0.05-0.05,0.03-0.18,0-0.26c-0.03-0.08-0.11-0.11-0.11-0.17
		c0-0.06,0.02-0.14,0.08-0.11c0.06,0.04,0.07,0.1,0.15,0.08c0.08-0.02,0.06-0.01,0.14-0.07c0.07-0.06,0.12-0.09,0.17-0.1
		c0.05-0.01,0.1-0.02,0.14-0.09c0.04-0.07,0.04-0.08,0.13-0.22c0.09-0.13,0.08-0.26,0.21-0.29c0.12-0.04,0.12-0.03,0.22-0.06
		c0.1-0.04,0.08,0.01,0.15-0.06c0.07-0.07,0.06-0.12,0.09-0.22c0.03-0.1,0.04-0.12,0.07-0.24c0.04-0.12,0.16-0.21,0.23-0.28
		c0.07-0.07-0.05-0.15,0.04-0.19c0.09-0.05,0.23-0.05,0.26-0.11c0.04-0.06,0.05-0.08,0.04-0.22c-0.01-0.14-0.14-0.52-0.04-0.53
		c0.1-0.02,0.05,0.1,0.1,0.11c0.05,0.01,0.18,0,0.15-0.15c-0.04-0.15,0.04-0.26-0.07-0.28s-0.36,0.12-0.36,0.12
		s-0.11,0.18-0.22,0.22c-0.11,0.04-0.13,0.04-0.18,0.05c-0.05,0.01-0.28-0.04-0.31-0.06c-0.02-0.02-0.17-0.18-0.18-0.15
		c-0.01,0.02-0.12,0.11-0.08,0.15c0.05,0.04,0.08,0.09,0.15,0.13c0.07,0.04,0.14,0.01,0.16,0.11c0.02,0.1-0.04,0.21-0.09,0.27
		c-0.05,0.06-0.11,0.07-0.13,0.2c-0.02,0.13-0.05,0.24-0.05,0.24s-0.09,0.05-0.07-0.05c0.02-0.09,0.07-0.28-0.02-0.15
		c-0.09,0.13-0.21,0.18-0.21,0.24c0,0.06-0.04,0.24-0.03,0.38c0.01,0.13,0.05,0.18,0,0.24c-0.05,0.06-0.15,0.02-0.18,0.09
		c-0.03,0.07-0.02,0.13-0.04,0.14c-0.02,0.01-0.01,0-0.12,0s-0.2,0.01-0.27,0.09c-0.07,0.08-0.12,0.06-0.14,0.22
		c-0.02,0.16,0,0.13-0.04,0.28c-0.04,0.15-0.16,0.24-0.16,0.24s-0.12-0.04-0.16,0.02c-0.04,0.06-0.08,0.15,0,0.19
		c0.08,0.04,0.09-0.04,0.12,0.04c0.03,0.08-0.01,0.08-0.05,0.14c-0.04,0.06-0.11,0.11-0.07,0.16c0.04,0.05,0.2,0.01,0.26,0
		c0.06-0.01,0.22,0.04,0.09,0.1c-0.13,0.06-0.17,0.05-0.26,0.13c-0.09,0.08-0.22,0.05-0.26,0.15c-0.05,0.1-0.12,0.08-0.14,0.26
		c-0.02,0.18-0.12,0.64-0.22,0.87c-0.1,0.23-0.71,0.96-0.71,0.96s-0.44,0.39-0.49,0.43c-0.05,0.05-0.02,0.03-0.15,0.09
		c-0.12,0.06-0.22,0.19-0.22,0.19s-0.05-0.84,0-0.99c0.05-0.16,0.27-0.45,0.32-0.56s0.17-0.27,0.09-0.5
		c-0.08-0.23-0.5-0.67-0.64-0.88c-0.14-0.2-0.33-0.55-0.58-0.63c-0.25-0.08-0.52-0.16-0.63-0.3s-1.13-0.89-1.22-1.02
		c-0.09-0.13-0.58-0.53-0.67-0.64c-0.09-0.11-0.3-0.45-0.49-0.49c-0.19-0.03-0.27-0.13-0.45-0.03s-0.03,0.09-0.23,0.19
		c-0.2,0.09-0.31,0.22-0.31,0.03s0.03-0.22-0.06-0.31c-0.09-0.09-0.19-0.08-0.23-0.23c-0.05-0.16,0-0.31-0.13-0.38
		c-0.13-0.06-0.31-0.11-0.49-0.19c-0.17-0.08-0.27-0.11-0.38-0.23c-0.11-0.13-0.23-0.27-0.38-0.31c-0.14-0.05-0.31-0.09-0.42-0.14
		c-0.11-0.05-0.23-0.05-0.2-0.11c0.03-0.06,0.52-0.38,0.66-0.52c0.14-0.14,0.64-0.53,0.85-0.74c0.2-0.2,0.77-1.39,1-1.67
		c0.23-0.28,0.52-0.56,0.95-0.95c0.44-0.38,0.64-0.57,1.27-0.84c0.63-0.27,1.35-0.49,1.57-0.75c0.22-0.27,0.14-0.14,0.28-0.49
		c0.14-0.34,0.19-0.63,0.11-0.94c-0.08-0.31-0.25-0.39-0.09-0.66c0.16-0.27,0.13-0.45-0.03-0.85c-0.16-0.39,0.11-0.44-0.31-0.53
		c-0.42-0.09-0.81-0.14-0.88-0.22c-0.06-0.08-0.23-0.05-0.16-0.28c0.08-0.23,0.14-0.99,0.19-1.21c0.05-0.22,0.27-1.05,0.31-1.17
		c0.05-0.13,0.16-0.49,0.16-0.53c0-0.05-0.05-0.08-0.28-0.2c-0.23-0.13-0.5-0.41-0.81-0.33c-0.31,0.08-0.34,0.28-0.55,0.33
		c-0.2,0.05-0.16,0.2-0.34,0.05c-0.19-0.16-0.28,0.11-0.31-0.25c-0.03-0.36-0.27-2.3-0.28-2.49c-0.02-0.19-0.25-0.49-0.39-0.55
		c-0.14-0.06-0.3-0.34-0.53-0.2c-0.23,0.14-0.3,0.11-0.39,0.08c-0.09-0.03-0.08-0.14-0.36-0.12c-0.28,0.02-2.6,0.05-2.65,0
		c-0.05-0.05-0.25-0.16-0.17-0.38c0.08-0.22,0.42-1.16,0.42-1.41c0-0.25-0.25-1.28-0.44-1.46c-0.19-0.17,0.11-0.55,0.11-0.75
		c0-0.2-0.36-0.47-0.25-0.7c0.11-0.23,0.99-2.43,0.97-2.68c-0.02-0.25-0.77-1.25-0.83-1.35c-0.06-0.09-0.42,0.11-0.44-0.14
		c-0.02-0.25-0.36-1.41-0.31-1.57c0.05-0.16,0.16-0.3,0.13-0.44c-0.03-0.14-0.16-0.25-0.27-0.27c-0.11-0.02-0.69-0.2-0.97-0.2
		s-0.19,0.14-0.77,0.16c-0.58,0.02-1.24,0.14-1.33-0.16c-0.09-0.3-0.75-1.44-0.75-1.44s0.44,0,0.39-0.64
		c-0.05-0.64-0.08-1.83-0.25-2.19c-0.17-0.36-0.28-0.53-0.52-0.61c-0.23-0.08-0.56-0.28-0.74-0.31c-0.17-0.03-1.39-0.09-1.39-0.09
		s-0.39-0.41-0.55-0.52c-0.16-0.11-0.58-0.06-0.67-0.22c-0.09-0.16-0.49-0.64-0.74-0.7c-0.25-0.06-0.45,0.17-0.64,0
		c-0.19-0.17-0.3-0.42-0.52-0.44c-0.22-0.02-0.77,0.03-0.99,0c-0.22-0.03-0.77-0.53-1.03-0.7c-0.27-0.17-0.38-0.2-0.44-0.31
		c-0.06-0.11-0.69-1.11-0.64-1.31c0.05-0.2,0.13-1.31,0.08-1.46c-0.05-0.14-0.59-0.38-0.59-0.38s-1.38,0.03-1.46,0
		c-0.08-0.03-1.11,0.56-1.21,0.61c-0.09,0.05-1.83,0.03-1.86,0.11s-0.47,0.2-0.5,0.45c-0.03,0.25-0.25,0.59-0.28,0.66
		c-0.03,0.06-0.85-0.61-0.95-0.66c-0.11-0.05-1.16-0.06-1.61-0.13c-0.45-0.06-0.86,0.2-0.94,0.3c-0.08,0.09-0.42-0.13-0.36-0.39
		c0.06-0.27-0.06-0.92-0.17-1.08s-0.3-0.03-0.16-0.3c0.14-0.27,0.06-0.66-0.05-0.75c-0.11-0.09-0.14-0.17-0.33,0
		c-0.19,0.17-0.5,0.44-0.66,0.61c-0.16,0.17-0.25,0.22-0.25,0.41s0.11,0.27-0.17,0.38c-0.28,0.11-0.42,0.2-0.74,0.16
		c-0.31-0.05-0.31,0.02-0.44-0.17c-0.13-0.19-0.64-0.67-0.64-0.67s-0.67-0.11-0.78-0.11s-0.45,0-0.33-0.06
		c0.13-0.06,0.23-0.39,0.17-0.52c-0.06-0.13-0.23-0.19-0.2-0.38c0.03-0.19,0.12-0.38,0-0.47c-0.13-0.09-0.42-0.28-0.52-0.42
		c-0.09-0.14-0.74-0.7-0.74-0.8c0-0.09,0.14-0.25,0-0.39c-0.14-0.14-0.36-0.3-0.36-0.38s0.23-0.06,0.34-0.19s0.11-1.11,0.33-1.25
		c0.22-0.14,0.61-0.41,0.77-0.52c0.16-0.11,0.2-0.28,0.17-0.45c-0.03-0.17-0.25-0.27-0.09-0.44c0.16-0.17,0.25-0.63,0.39-0.81
		s-0.02-0.56,0.34-0.74c0.36-0.17,0.27-0.31,0.75-0.5c0.49-0.19,0.7-0.47,1-0.52c0.3-0.05,0.72-0.05,0.99-0.13
		c0.27-0.08,0.47-0.11,0.59-0.28c0.13-0.17,0.08-0.16,0.31-0.14c0.23,0.02,0.99,0.13,1.05,0.16c0.06,0.03,0.34,0.14,0.47,0.09
		c0.13-0.05,0.28-0.07,0.38-0.26c0.09-0.19,0.95-5.41,0.95-5.45c0-0.05-0.06-0.47-0.23-0.55c-0.17-0.08-0.5-0.23-0.45-0.39
		c0.05-0.16,0.22-0.34,0.02-0.56c-0.2-0.22-0.53-0.3-0.49-0.47c0.05-0.17-0.14-1.05-0.05-1.17c0.09-0.13,0.12-0.33,0.32-0.33
		c0.2,0,0.72,0.19,0.72,0.19s-0.02-0.08,0.14-0.19c0.16-0.11,0.17-0.34,0.17-0.34s0.13-0.03,0.06-0.31
		c-0.06-0.28-0.05-0.19-0.14-0.36c-0.09-0.17-0.05-0.27-0.19-0.25c-0.14,0.02,0.09,0.09-0.25,0c-0.34-0.09-0.25-0.01-0.34-0.09
		c-0.09-0.08-0.2-0.13-0.16-0.28c0.05-0.16-0.03-0.27,0.27-0.27s1-0.09,1.25-0.09c0.25,0,0.69,0.08,0.8,0
		c0.11-0.08,0.14-0.2,0.17-0.39c0.03-0.19,0.13,0.09,0.2,0.3c0.08,0.2,0.3,0.39,0.5,0.34c0.2-0.05,0.38-0.06,0.44-0.17
		c0.06-0.11,0.17-0.42,0.17-0.42s0.28,0.11,0.34,0.22c0.06,0.11,0.11,0.23,0.11,0.56s0,0.49,0.08,0.61
		c0.08,0.13,0.23,0.28,0.38,0.19c0.14-0.09,0.28-0.27,0.41-0.14c0.13,0.13,0.45,0.47,0.77,0.56c0.31,0.09,0.5,0.05,0.7,0
		c0.2-0.05,0.38,0.19,0.59,0.05c0.22-0.13,0.25-0.38,0.52-0.51c0.27-0.13,1.13-0.25,1.28-0.44c0.16-0.19,0.23-0.33,0.36-0.27
		c0.13,0.06,0.39,0.16,0.5,0.08c0.11-0.08,0.33-0.42,0.39-0.56c0.06-0.14,0-0.36,0.14-0.38c0.14-0.02,0.36-0.13,0.42-0.17
		c0.06-0.05,0.19-0.14,0.28-0.13c0.09,0.02,0.49-0.11,0.53-0.19c0.05-0.08,0.17-0.39,0.08-0.45c-0.09-0.06-0.34-0.25-0.47-0.22
		c-0.13,0.03-0.47,0.09-0.61,0.08c-0.14-0.02-0.17,0.02-0.28-0.08c-0.11-0.11-0.16-0.07-0.2-0.23c-0.05-0.16-0.14-0.53-0.11-0.77
		c0.03-0.23-0.03-0.45,0.16-0.61c0.19-0.16,0.28-0.16,0.19-0.42c-0.09-0.27-0.02-0.28-0.19-0.45c-0.17-0.17-0.5-0.34-0.49-0.39
		c0.02-0.05,0.19-0.09,0.33,0c0.14,0.09,0.33,0.41,0.52,0.52s0.44,0.13,0.69,0.14c0.25,0.02,0.24,0.05,0.5,0.05
		c0.26,0,0.62-0.06,0.81-0.23c0.19-0.17,0.25-0.44,0.45-0.44c0.2,0,1,0.03,1.27-0.09c0.27-0.12,0.78-0.15,0.83-0.29
		c0.05-0.14-0.03-0.31,0.23-0.39c0.27-0.08,0.66-0.25,0.85-0.34c0.19-0.09,0.36-0.31,0.39-0.42c0.03-0.11-0.02-0.44,0.06-0.42
		c0.08,0.02,0.11,0.13,0.28,0.14c0.17,0.02,0.19-0.3,0.28-0.14c0.09,0.16-0.03,0.41,0,0.58c0.03,0.17-0.09,0.64-0.06,0.69
		c0.03,0.05,0.33,0.14,0.42,0.19c0.09,0.05,0.39,0.17,0.45,0.34c0.06,0.17,0.25,0.39,0.09,0.49c-0.16,0.09-0.33,0.06-0.38,0.28
		s-0.02,0.5-0.11,0.72c-0.09,0.22-0.23,0.5-0.25,0.64c-0.02,0.14-0.05,0.31-0.05,0.52c0,0.2,0.41,0.64,0.52,0.7
		c0.11,0.06,0.09,0.5,0.11,0.67c0.02,0.17,0.34,0.42,0.47,0.63c0.13,0.2,0.36,0.47,0.49,0.49c0.13,0.02,0.28,0.03,0.36,0.19
		c0.08,0.16,0.23,0.31,0.49,0.28s0.66-0.05,0.69-0.16c0.03-0.11-0.2-0.38,0-0.42c0.2-0.05,0.36-0.16,0.36-0.16s0.23,0.2,0.34,0.06
		c0.11-0.14,0.3-0.19,0.45-0.2c0.16-0.02,0.27-0.17,0.41-0.19c0.14-0.02,0.28-0.13,0.38-0.23c0.09-0.11-0.03-0.09,0.09-0.11
		c0.13-0.02,0.34,0.39,0.64,0.39c0.3,0,0.49-0.02,0.58-0.08c0.09-0.06,0.11-0.23,0.19-0.23s0.5,0.19,0.74,0.08
		c0.23-0.11,0.56-0.06,0.59-0.2s0.03-0.49-0.06-0.55c-0.09-0.06-0.06-0.36,0.08-0.23c0.14,0.13,0.45,0.09,0.8,0.06
		c0.34-0.03,0.09-0.2,0.42-0.11c0.33,0.09,0.44,0.02,0.5,0.08c0.06,0.06,0.16,0.55,0.52,0.72c0.36,0.17,0.3,0.23,0.69,0.27
		c0.39,0.03,0.59,0,0.72-0.08c0.13-0.08,0.19-0.22,0.58-0.22s0.64-0.11,0.75-0.16s0.74-0.56,0.89-0.81
		c0.16-0.25,0.25-0.67,0.25-0.67s0.36-1.05,0.53-1.22c0.17-0.17,0.28-0.34,0.33-0.39c0.05-0.05,0.06-0.14,0.13-0.31
		c0.06-0.17,0.09-0.3,0.09-0.3s0.19-0.13,0.31-0.17c0.13-0.05,0.14-0.23,0.16-0.19c0.02,0.05,0.02,0.05,0.02,0.05
		s0.09-0.41,0.19-0.31c0.09,0.09,0.56,0.45,0.56,0.81c0,0.36,0,0.36,0,0.36s0.09-0.27,0.16-0.19c0.06,0.08,0.16,0.28,0.16,0.49
		c0,0.2-0.02,0.53,0.09,0.8c0.11,0.27,0.44,1.03,0.5,1.36s0.08,0.47,0.14,0.61s0.17,0.39,0.17,0.39s0.13,0.05,0.25,0.03
		c0.13-0.02,0.2-0.02,0.31,0c0.11,0.02,0.27-0.03,0.33,0.14c0.06,0.17-0.05,0.41,0,0.5c0.05,0.09,0.04,0.27,0.02,0.31
		c-0.02,0.05-0.11,0.02-0.18,0.13c-0.06,0.11-0.09,0.16-0.11,0.27c-0.02,0.11,0.02,0.11-0.08,0.22c-0.09,0.11-0.22,0.2-0.22,0.3
		c0,0.09-0.02,0.07-0.08,0.16c-0.06,0.09-0.09,0.09-0.28,0.26c-0.19,0.17-0.44,0.58-0.5,0.63c-0.06,0.05-0.31,0.19-0.38,0.23
		c-0.06,0.05-0.16,0.17-0.22,0.23c-0.06,0.06-0.13,0.16-0.2,0.22c-0.08,0.06-0.2,0.22-0.25,0.25c-0.05,0.03-0.17,0.11-0.28,0.2
		c-0.11,0.09-0.2,0.2-0.27,0.36c-0.06,0.16-0.16,0.23-0.2,0.34c-0.05,0.11-0.11,0.19-0.16,0.25c-0.05,0.06-0.09,0.16-0.13,0.2
		c-0.03,0.05-0.09,0.14-0.14,0.2c-0.05,0.06-0.13,0.09-0.17,0.14c-0.05,0.05-0.03,0.16-0.03,0.16s-0.17,0.08-0.19,0.16
		c-0.02,0.08-0.09,0.14,0,0.2c0.09,0.06,0.14,0.16,0.25,0.09s0.23,0.07,0.34,0.02c0.11-0.05,0.23-0.15,0.3-0.21
		c0.06-0.06,0.16-0.05,0.23-0.16c0.08-0.11,0.11-0.19,0.2-0.2c0.09-0.02,0.11-0.02,0.25-0.05c0.14-0.03,0.27-0.14,0.31-0.17
		c0.05-0.03,0.17-0.13,0.25-0.17c0.08-0.05,0.09-0.05,0.2-0.05c0.11,0,0.25-0.14,0.25-0.14s0.13,0.02,0.13,0.11
		c0,0.09-0.03,0.19,0,0.3c0.03,0.11-0.09,0.06,0.03,0.11c0.13,0.05,0.17-0.05,0.16-0.16c-0.02-0.11-0.13-0.22-0.08-0.3
		c0.05-0.08-0.05,0,0.05-0.08c0.09-0.08,0.16-0.08,0.17-0.14c0.02-0.06,0.05-0.11,0.05-0.2s0-0.23,0-0.28c0-0.05,0-0.22,0.06-0.31
		c0.06-0.09,0.05-0.16,0.19-0.27c0.14-0.11,0.17-0.13,0.22-0.16c0.05-0.03,0.19-0.13,0.25-0.13s0.02-0.05,0.25,0
		c0.23,0.05,0.28,0.05,0.4,0.05c0.13,0,0.05-0.02,0.23-0.02c0.19,0,0.28,0,0.41,0c0.13,0,0.22-0.03,0.31-0.06
		c0.09-0.03,0.2-0.09,0.3-0.09c0.09,0,0.09-0.09,0.16-0.02c0.06,0.08,0,0.08,0.14,0.11c0.14,0.03,0.23,0.06,0.28,0.06
		c0.05,0,0.05-0.08,0.22,0.02c0.17,0.09,0.38,0.16,0.38,0.16s-0.04,0.25-0.09,0.32c-0.05,0.07-0.13,0.21-0.13,0.29
		c0,0.08,0,0.13-0.02,0.24c-0.02,0.11-0.05,0.08-0.08,0.14c-0.03,0.07-0.09,0.06-0.09,0.17c-0.01,0.1,0,0.14-0.06,0.17
		c-0.06,0.02-0.11,0.07-0.12,0.16c-0.01,0.09-0.02,0.36-0.05,0.42c-0.02,0.06-0.09,0.1-0.19,0.13c-0.1,0.02-0.34,0.12-0.39,0.17
		c-0.05,0.05-0.21,0.17-0.27,0.18c-0.05,0.02-0.05,0.01-0.17,0.05c-0.13,0.04-0.16,0.05-0.23,0.07c-0.08,0.02-0.06,0.02-0.16,0.04
		c-0.09,0.02-0.1,0.04-0.17,0.05c-0.07,0.01-0.12-0.02-0.16,0c-0.05,0.02-0.14-0.01-0.19-0.04c-0.05-0.03-0.01-0.08-0.13-0.01
		c-0.13,0.07-0.16,0.11-0.23,0.11c-0.07,0-0.06-0.09-0.14,0c-0.08,0.09-0.05,0.11-0.13,0.12c-0.07,0.01-0.19,0.02-0.23,0
		c-0.04-0.02,0.02-0.17-0.13-0.1c-0.15,0.07-0.15,0.11-0.19,0.11c-0.04,0-0.14-0.04-0.17-0.08c-0.03-0.04-0.14-0.21-0.16-0.2
		c-0.02,0.01-0.09,0.1-0.13,0.15c-0.04,0.05-0.13,0.06-0.16,0.09c-0.04,0.03-0.11,0.11-0.05,0.16c0.05,0.05,0.13,0.09,0.18,0.03
		c0.05-0.05,0.28-0.06,0.33-0.05c0.05,0.01,0.3-0.06,0.28,0.02c-0.02,0.09,0,0.13-0.02,0.2c-0.02,0.06-0.03,0.14-0.01,0.14
		s0.05-0.14,0.12-0.15c0.07-0.01,0.09,0.04,0.14,0.03c0.05-0.01-0.15-0.24-0.07-0.27c0.08-0.02,0.16-0.04,0.23,0
		c0.08,0.04,0.13,0.04,0.23,0.04c0.09,0,0.2,0.02,0.27,0c0.06-0.02,0.09,0.01,0.16-0.05c0.08-0.06,0.02-0.09,0.13-0.11
		s0.18-0.02,0.21-0.02s0.13-0.05,0.22,0c0.09,0.06,0.12,0.14,0.18,0.06c0.06-0.08,0.15-0.16,0.22-0.18c0.07-0.02,0.19-0.08,0.2,0.03
		c0.02,0.11,0.04,0.14-0.02,0.21c-0.05,0.07-0.11,0.24-0.19,0.3c-0.08,0.05-0.15,0.15-0.2,0.2c-0.05,0.05-0.1,0.09-0.11,0.14
		c-0.01,0.05-0.01,0.15,0.01,0.19c0.02,0.04,0.03,0.17,0.02,0.21c-0.01,0.04-0.07,0.08-0.07,0.12c0,0.04-0.03,0.09,0.02,0.11
		c0.05,0.02,0.12,0.04,0.17-0.05c0.05-0.09,0.09-0.07,0.05-0.2c-0.03-0.13-0.02-0.29,0.03-0.31c0.05-0.02,0.09-0.02,0.1-0.05
		c0.01-0.04-0.02-0.05,0-0.13c0.02-0.07,0.05-0.13,0.1-0.16c0.05-0.03,0.13-0.08,0.15-0.14c0.02-0.06,0.03-0.11,0.06-0.18
		c0.03-0.07,0.02-0.09,0.05-0.16c0.03-0.07,0.02-0.1,0.1-0.18c0.09-0.09,0.15-0.19,0.2-0.21c0.05-0.02,0.11-0.17,0.14-0.12
		c0.03,0.04,0.02,0.12,0.07,0.12c0.05,0,0.11-0.04,0.13-0.06c0.02-0.02,0.02-0.1,0.02-0.13c0-0.03-0.01-0.13,0.07-0.06
		c0.08,0.07,0.21,0.13,0.24,0.16c0.03,0.02,0.05,0.09,0.05,0.09s0.01-0.12,0.08-0.12c0.07,0,0.25-0.02,0.23-0.07
		c-0.02-0.05-0.03-0.05-0.11-0.13c-0.08-0.08-0.14-0.2-0.09-0.25c0.05-0.05,0.12-0.01,0.09-0.11c-0.02-0.1-0.09-0.08-0.07-0.17
		c0.02-0.09,0.08-0.17,0.11-0.16c0.03,0.02,0.16,0.1,0.19,0.05c0.03-0.05-0.08-0.21-0.03-0.25c0.05-0.04,0.19-0.24,0.28-0.31
		c0.09-0.07,0.15-0.18,0.22-0.18c0.07,0,0.05,0.06,0.12,0.07c0.07,0,0.11-0.11,0.16-0.11c0.05-0.01,0.12,0.13,0.16,0.11
		c0.04-0.02,0.03-0.16,0.12-0.15c0.09,0.02,0.09,0.17,0.13,0.15c0.05-0.02,0.02-0.15,0.08-0.15c0.05,0.01,0.02,0.11,0.14,0.15
		c0.12,0.03,0.28-0.17,0.35-0.15c0.07,0.02-0.05,0.16,0.05,0.18c0.1,0.02,0.12-0.18,0.2-0.12c0.08,0.06-0.06,0.15,0.05,0.17
		c0.12,0.02,0.11-0.09,0.22-0.04c0.11,0.05,0.05,0.07,0.11,0.1c0.05,0.03,0.15-0.06,0.2-0.03c0.05,0.02-0.05,0.09,0,0.13
		c0.05,0.03,0.16-0.07,0.24-0.05c0.08,0.02-0.09,0.07,0.05,0.13c0.14,0.06,0.13-0.09,0.2-0.03c0.07,0.06,0,0.19,0.13,0.27
		c0.13,0.09,0.28-0.02,0.36-0.05c0.08-0.03,0.08-0.1,0.16-0.06c0.09,0.04,0.07,0.12,0.2,0.19c0.13,0.07,0.23-0.03,0.34,0.01
		c0.1,0.04,0.18-0.09,0.15,0.07c-0.03,0.16,0.02,0.19-0.05,0.22c-0.07,0.03-0.05,0.03,0,0.05c0.05,0.02,0.09,0.09,0.16,0.08
		c0.07-0.02,0.1-0.07,0.16-0.09c0.06-0.02,0.08-0.09,0.13-0.01c0.05,0.09,0.02,0.15,0.07,0.2c0.05,0.05,0.13,0.06,0.16,0.07
		c0.02,0.01,0.08,0.02,0.14-0.02c0.06-0.04,0.05-0.05,0.09-0.08c0.04-0.03,0.15-0.08,0.16-0.08c0.02,0,0.12,0.05,0.1,0.09
		c-0.02,0.05-0.06,0.04-0.09,0.08c-0.03,0.04-0.06,0.08-0.05,0.11c0.01,0.02,0.02,0.03,0.02,0.07c0.01,0.04,0.03,0.05-0.01,0.09
		c-0.04,0.04-0.1-0.03-0.14,0.09c-0.04,0.12-0.05,0.16-0.03,0.19s0.09,0.08,0.11,0.1c0.01,0.02,0.02-0.07,0.04-0.1
		c0.02-0.03,0.14-0.06,0.14-0.08c0.01-0.01,0,0,0.09-0.03c0.09-0.03,0.12-0.06,0.14-0.08c0.02-0.02,0.05-0.01,0.06-0.05
		c0.02-0.04,0.04-0.07,0-0.09c-0.04-0.02-0.15,0-0.06-0.05c0.09-0.05,0.14,0.08,0.16,0.11c0.02,0.02,0.04-0.02,0.07-0.02
		c0.04,0.01,0.06-0.03,0.09-0.05c0.03-0.02,0.02-0.05,0.06-0.09c0.04-0.04,0.16-0.08,0.16-0.02s-0.04,0.08-0.04,0.12
		c0.01,0.04,0.05,0.06,0.07,0.04c0.02-0.03-0.01-0.09,0.06-0.04c0.07,0.06,0.05,0.11,0.05,0.13c-0.01,0.02-0.01,0.09,0.01,0.1
		c0.02,0.01,0.06-0.02,0.07,0.03c0.01,0.05,0.01,0.08,0,0.12c-0.01,0.04-0.04,0.04-0.04,0.11c0,0,0.04,0.03,0.09,0.09
		c0.05,0.06,0.07,0.08,0.13,0.15c0.06,0.06,0.11,0.08,0.13,0.16c0.02,0.08,0.12,0.07,0,0.11c-0.12,0.04-0.27,0.11-0.32,0.17
		s-0.13,0.06-0.05,0.13c0.08,0.06,0.05,0.09,0.17,0.01c0.12-0.08,0.22-0.25,0.32-0.2c0.09,0.05,0.16,0.21,0.16,0.25
		c0.01,0.04-0.1,0.17-0.1,0.17s0.05,0.05,0.04,0.09c-0.01,0.04-0.06,0.04-0.07,0.09c-0.01,0.05-0.04,0.02-0.05,0.12
		c-0.01,0.11,0.01,0.12,0.02,0.18c0.01,0.06-0.04,0.1-0.05,0.14c-0.01,0.04-0.07,0.01-0.03,0.11c0.04,0.09,0.08,0.1,0.11,0.16
		c0.03,0.06,0.05,0.08,0.08,0.12c0.02,0.04-0.06,0.06,0.05,0.09c0.11,0.02,0.23,0.07,0.26,0c0.02-0.07-0.03-0.13-0.05-0.22
		c-0.02-0.09-0.02-0.13-0.01-0.15c0.02-0.02,0.02-0.06,0.04-0.1c0.02-0.04,0.03-0.14,0.03-0.14s0.09,0.03,0.12,0.07
		c0.03,0.04,0,0.09,0.11,0.08c0,0,0.22-0.01,0.29-0.06c0.07-0.05,0.12-0.16,0.19-0.24c0.07-0.08,0.19-0.2,0.19-0.2
		s0.09-0.01,0.14,0.02c0.05,0.04,0.16,0.06,0.23,0.08c0.08,0.01,0.12,0.01,0.15-0.01c0.02-0.02,0.11-0.06,0.15-0.08
		c0.04-0.02,0.04-0.05,0.03-0.07c-0.01-0.02-0.07-0.09,0-0.09c0,0,0.29-0.02,0.37,0.01c0.08,0.04,0.21,0.09,0.33,0.16
		c0.12,0.06,0.31,0.2,0.43,0.24c0.12,0.04,0.2,0.04,0.25,0.11c0.05,0.08,0.11,0.16,0.15,0.18c0.04,0.02,0.17,0.08,0.27,0.09
		c0.1,0.01,0.19,0,0.22,0c0.03,0,0.12-0.02,0.15,0c0.04,0.02-0.02,0,0.04,0.02c0.05,0.02,0.06-0.02,0.06-0.02s0.02-0.02,0.06,0
		c0.04,0.02,0.09,0.03,0.06,0c-0.02-0.03-0.06-0.07-0.04-0.07c0.02,0,0.18,0.05,0.23,0.07c0.05,0.03,0.14,0.03,0.31,0.11
		c0.18,0.09,0.33,0.15,0.5,0.15s0.48,0.02,0.59,0.02c0.11,0,0.3,0.01,0.41-0.02c0.11-0.02,0.36-0.01,0.62-0.04
		c0.26-0.02,0.45-0.07,0.57-0.09c0.12-0.02,0.23-0.12,0.4-0.09c0.17,0.03,0.58,0.24,0.76,0.35c0.19,0.11,0.38,0.26,0.52,0.31
		c0.14,0.04,0.2,0,0.33,0.06c0.14,0.06,0.72,0.65,0.81,0.7c0.09,0.06,0.41,0.27,0.59,0.38c0.19,0.11,0.43,0.31,0.62,0.53
		s0.28,0.34,0.35,0.36c0.08,0.02,0.15,0,0.22,0.1c0.07,0.1,0.06,0.12,0.14,0.28c0.08,0.16,0.11,0.25,0.18,0.29
		c0.07,0.04,0.36-0.08,0.52,0s0.31,0.32,0.39,0.44c0.08,0.12,0.28,0.18,0.38,0.17c0.11-0.01,0.43,0.26,0.55,0.26
		c0.12,0.01,0.89,0.04,1,0.07s0.5-0.06,0.6-0.04c0.11,0.03,0.58,0.13,0.73,0.29c0.15,0.16,0.23,0.15,0.29,0.45
		c0.06,0.31-0.04,0.44,0.11,0.69s0.14,0.31,0.22,0.61c0.08,0.3,0.3,0.94,0.34,1.12c0.04,0.18,0.12,0.85,0.09,1.19
		c-0.03,0.33-0.28,1.47-0.29,1.62c-0.02,0.15-0.29,0.84-0.35,0.94c-0.06,0.11-0.44,0.75-0.51,0.89c-0.07,0.15-0.47,0.52-0.62,0.67
		c-0.15,0.15-0.47,0.39-0.52,0.49c-0.05,0.09,0.03,0.13-0.08,0.26c-0.11,0.14-0.04,0.11-0.22,0.29c-0.18,0.18-0.49,0.42-0.6,0.48
		c-0.11,0.06-0.35,0.27-0.59,0.4s-0.37,0.17-0.39,0.25c-0.02,0.08-0.01,0.11-0.05,0.17c-0.04,0.06-0.05,0.1-0.09,0.08
		c-0.05-0.02-0.08-0.06-0.11-0.07c-0.02-0.01-0.06-0.02-0.05,0.05c0.02,0.07,0.11,0.1,0.08,0.15c-0.03,0.05,0.04,0.05-0.02,0.17
		s-0.07,0.14-0.11,0.15c-0.04,0.01-0.11-0.04-0.13-0.03c-0.02,0.01-0.03,0.02-0.04,0.06c-0.01,0.05,0.04,0.05,0.05,0.11
		c0.02,0.05,0.06,0.03,0.02,0.11c-0.04,0.08-0.09,0.2-0.09,0.26s-0.05,0.07-0.06,0.05c-0.02-0.02-0.04-0.05-0.06-0.06
		c-0.02-0.01-0.04-0.01-0.04,0.04c0,0.05,0.03,0.07,0.04,0.16c0.01,0.09,0.01,0.07-0.02,0.14c-0.04,0.07-0.54,0.79-0.63,0.94
		c-0.09,0.15-0.19,0.36-0.32,0.48c-0.14,0.12-0.37,0.33-0.44,0.41c-0.07,0.08-0.16,0.15-0.2,0.18c-0.04,0.02-0.19,0.06-0.22,0
		c-0.04-0.06-0.06-0.16,0-0.19c0.06-0.03,0.13-0.04,0.11-0.09c-0.02-0.05-0.01-0.06-0.05-0.12c-0.05-0.06-0.05,0.04-0.13,0.02
		c-0.08-0.02-0.04-0.17-0.13-0.19c-0.09-0.02-0.09,0.14-0.11,0.15c-0.02,0.02-0.15-0.03-0.15,0.05c0,0.08-0.02,0.04,0.09,0.14
		c0.12,0.1,0.07,0.15,0.04,0.16s-0.18-0.03-0.13,0.06c0.05,0.09,0.12,0.02,0.13,0.07c0.01,0.05-0.05,0.18-0.1,0.21
		c-0.05,0.03-0.11,0-0.13,0.08s-0.06,0.09-0.09,0.11c-0.03,0.02-0.08-0.02-0.06,0.06c0.02,0.08,0.06,0.09,0.09,0.13
		c0.03,0.04,0.04,0.12-0.03,0.1c-0.07-0.02-0.09-0.03-0.1,0c-0.01,0.03-0.08,0.03-0.02,0.09c0.06,0.06,0.12,0.03,0.14,0.15
		c0.02,0.12-0.04,0.06-0.08,0.08c-0.05,0.01-0.12,0.05-0.1,0.12c0.02,0.06,0.13,0.08,0.18,0.11c0.04,0.02,0.02,0.05-0.03,0.09
		c-0.05,0.04-0.12,0.12-0.11,0.18c0.01,0.06,0.06,0.08,0.06,0.13s-0.04,0.11-0.06,0.26c-0.02,0.15-0.02,0.33-0.04,0.44
		c-0.01,0.11-0.03,0.22-0.08,0.3s-0.11,0.08-0.11,0.27c0.01,0.19,0.06,0.33,0.11,0.44c0.05,0.11,0.06,0.2,0.06,0.26
		s-0.02,0.06,0,0.11c0.02,0.04,0.08,0.06,0.08,0.09c0.01,0.04-0.16-0.04-0.16,0.08s0.1,0.12,0.06,0.25
		c-0.04,0.13-0.18,0.27-0.11,0.46c0.07,0.19,0.18,0.52,0.19,0.68c0.01,0.16-0.02,0.36-0.09,0.48c-0.07,0.12-0.08,0.31-0.09,0.4
		c-0.01,0.09-0.02,0.19-0.06,0.38c-0.04,0.19-0.12,0.29-0.13,0.53c-0.01,0.24,0.04,0.46-0.03,0.72c-0.07,0.25-0.16,0.39-0.13,0.55
		c0.02,0.15,0.05,0.09,0.1,0.26c0.05,0.18,0,0.31-0.08,0.45c-0.08,0.14-0.58,0.36-0.65,0.55c-0.07,0.19-0.12,0.5-0.12,0.62
		c0,0.12-0.01,1.36,0.02,1.5c0.03,0.14,0.02,0.29-0.12,0.48c-0.15,0.19-0.33,0.36-0.41,0.42c-0.08,0.06-0.22,0.06-0.33,0.19
		c-0.11,0.13-0.27,0.27-0.29,0.52c-0.02,0.25-0.21,0.7-0.22,0.87c-0.01,0.18-0.08,0.29-0.18,0.39c-0.1,0.11-0.29,0.15-0.37,0.29
		c-0.08,0.15-0.17,0.36-0.28,0.5c-0.11,0.15-0.15,0.18-0.28,0.41c-0.14,0.23-0.07,0.76-0.08,0.85s-0.02,0.09,0.04,0.21
		c0.05,0.12,0.14,0.15-0.04,0.24c-0.18,0.09-0.46,0.35-0.61,0.38c-0.15,0.03-0.52,0.04-0.62,0.14c-0.1,0.11-0.35,0.28-0.4,0.37
		c-0.05,0.09-0.13,0.22-0.12,0.26c0.01,0.04,0.04,0.19,0.04,0.19s0.01-0.06,0.04,0c0.04,0.06,0.05,0.15,0.01,0.17
		c-0.04,0.02-0.16,0.15-0.19,0.2c-0.04,0.05,0.05,0.05-0.11,0c-0.15-0.05-0.23-0.07-0.29-0.03c-0.05,0.04-0.07,0.09-0.09,0.04
		c-0.02-0.05-0.01-0.05-0.1-0.1c-0.09-0.05-0.15-0.06-0.25-0.06c-0.09,0-0.12-0.06-0.18,0.03c-0.06,0.09-0.06,0.13-0.06,0.13
		s-0.07,0.03-0.11,0.03c-0.04,0-0.11,0-0.23,0c-0.12,0-0.28-0.01-0.35-0.03c-0.07-0.02-0.18-0.03-0.16-0.05
		c0.01-0.02,0.05-0.05,0.06-0.17c0.01-0.12,0.01-0.13-0.05-0.17c-0.06-0.04-0.09-0.08-0.16-0.02c-0.07,0.05-0.16,0.07-0.17,0.14
		c-0.01,0.07,0.03,0.15-0.02,0.22c-0.05,0.06,0.01,0.21-0.19,0.14c-0.2-0.07-0.4-0.12-0.48-0.11c-0.08,0.01-0.2,0.02-0.22,0.02
		c-0.02,0,0.01-0.09-0.1-0.01c-0.11,0.08-0.26,0.15-0.3,0.18c-0.04,0.03-0.19,0.11-0.21,0.07c-0.02-0.04-0.08-0.12-0.04-0.11
		c0.04,0.02,0.08,0.05,0.15,0c0.08-0.05,0.25-0.11,0.26-0.16c0.02-0.05,0.03-0.13-0.06-0.11c-0.09,0.02-0.13,0-0.23,0.04
		c-0.1,0.04-0.13,0.04-0.16,0.09c-0.03,0.06-0.04,0.08-0.07,0.09c-0.04,0.02-0.01,0-0.08,0.04c-0.06,0.04-0.02,0.02-0.13,0.05
		c-0.11,0.04-0.12,0.04-0.08-0.02c0.04-0.06,0.11-0.15,0.05-0.19c-0.06-0.04-0.02-0.05-0.13-0.05s-0.25,0.05-0.36,0.18
		c-0.11,0.12-0.13,0.33-0.03,0.4c0.11,0.06,0.22-0.06,0.28,0.04c0.05,0.1-0.05-0.01-0.1,0.09c-0.05,0.09-0.02,0.18-0.19,0.18
		c-0.17,0-0.33,0.02-0.38,0.05c-0.04,0.04-0.07-0.15-0.17-0.12c0,0-0.21,0.08-0.34,0.22c-0.13,0.14-0.15,0.18-0.18,0.23
		c-0.03,0.05-0.04,0.05-0.15,0.06c-0.11,0.01-0.12,0-0.18,0.09c-0.05,0.09-0.07,0.08-0.04,0.15c0.03,0.08,0.06,0.12-0.01,0.17
		c-0.07,0.05-0.11-0.08-0.12-0.04c-0.01,0.04,0.05,0.13,0,0.16s-0.08-0.01-0.16-0.09c-0.08-0.08-0.06-0.11-0.16-0.11
		c-0.1,0-0.09-0.02-0.22,0.01c0,0-0.11-0.06-0.28-0.04c-0.18,0.02-0.33,0.08-0.39,0.15c-0.05,0.06-0.13,0.06-0.14,0.18
		c-0.01,0.12,0.02,0.23-0.08,0.25c-0.11,0.01-0.26-0.16-0.3-0.16c-0.04,0.01-0.09,0.14-0.14,0.16c-0.05,0.02-0.13-0.15-0.28-0.03
		c-0.15,0.12-0.53,0.66-0.65,0.76c-0.12,0.11-0.25,0.19-0.38,0.31c-0.13,0.11-0.25,0.06-0.38,0.19c-0.13,0.13-0.26,0.25-0.36,0.34
		c-0.09,0.09-0.21,0.07-0.27,0.11c-0.06,0.04-0.23,0.18-0.29,0.25c-0.05,0.08-0.08,0.08-0.11,0.16c-0.02,0.08-0.04,0.13,0.01,0.18
		s0.09,0.06,0.1,0.08c0.01,0.02,0.07,0.01-0.06,0.07c-0.13,0.06-0.19,0.15-0.29,0.23c-0.1,0.08-0.18,0.15-0.19,0.2
		c-0.02,0.05-0.02,0.09-0.08,0.04c-0.06-0.05,0.1-0.16,0.08-0.23c-0.02-0.07-0.12,0.04-0.19,0.02c-0.07-0.01-0.08-0.22-0.11-0.22
		c-0.04,0-0.12-0.02-0.12,0.01c-0.01,0.02,0.04,0.11,0.02,0.18c-0.02,0.07-0.04,0.14-0.09,0.14c-0.05,0-0.02-0.09-0.12-0.05
		c-0.11,0.05-0.22-0.05-0.23,0.05c-0.02,0.1,0.04,0.09,0.15,0.13c0.11,0.03,0.17,0.04,0.21,0.1c0.04,0.06,0.11,0.01,0.09,0.05
		c-0.01,0.04-0.13,0.1-0.15,0.18c-0.02,0.08-0.06,0.19-0.09,0.27c-0.03,0.08-0.09,0.05-0.09,0.1c-0.01,0.05,0.04,0.04,0.05,0.08
		c0.02,0.04,0.02-0.01,0.02,0.16c0,0.18-0.04,0.25-0.02,0.33c0.01,0.09,0.02,0.11-0.06,0.16c-0.08,0.05-0.27,0.14-0.26,0.19
		c0.01,0.05,0.02,0.07,0.2,0c0.18-0.07,0.18-0.22,0.25-0.17c0.06,0.05,0.11,0.12,0.04,0.21c-0.06,0.1-0.12,0.15-0.15,0.28
		c-0.03,0.13-0.15,0.32-0.13,0.53c0.02,0.21,0.04,0.24,0.1,0.29s0.06,0.02,0.04,0.17c-0.02,0.15,0,0.19,0.01,0.31
		c0.01,0.11,0.06,0.14,0.11,0.14s0.1-0.09,0.12-0.08c0.02,0.02,0.15,0.09,0.13,0.17c-0.02,0.08-0.21,0.02-0.27,0.12
		c-0.06,0.09-0.02,0.21-0.01,0.26c0.01,0.05,0.02,0.16-0.01,0.21c-0.02,0.05-0.11,0.02-0.14,0.18c-0.03,0.15-0.04,0.23,0.01,0.33
		c0.05,0.1,0.07,0.09,0.06,0.18c-0.01,0.09,0.01,0.37-0.02,0.58"/>
</g>
</svg>
