<?xml version="1.0" encoding="utf-8"?>
<!-- Generator: Adobe Illustrator 28.0.0, SVG Export Plug-In . SVG Version: 6.00 Build 0)  -->
<svg version="1.1" id="Camada_1" xmlns="http://www.w3.org/2000/svg" xmlns:xlink="http://www.w3.org/1999/xlink" x="0px" y="0px"
	 viewBox="0 0 1080 1080" style="enable-background:new 0 0 1080 1080;" xml:space="preserve">
<style type="text/css">
	.st0{opacity:0.05;fill:#75C200;}
	.st1{fill:#75C200;}
	.st2{fill:#FFFFFF;}
	.st3{fill:none;stroke:#FFFFFF;stroke-width:1.4619;stroke-miterlimit:10;}
	.st4{fill:#FFFFFF;stroke:#FFFFFF;stroke-width:0.3071;stroke-miterlimit:10;}
</style>
<g>
	<g>
		<circle class="st0" cx="540" cy="540" r="540"/>
		<circle class="st0" cx="540" cy="540" r="468.31"/>
		<circle class="st0" cx="540" cy="540" r="408.38"/>
		<circle class="st0" cx="540" cy="540" r="343.74"/>
		<circle class="st0" cx="540" cy="540" r="276.76"/>
		<circle class="st0" cx="540" cy="540" r="208.6"/>
		<circle class="st0" cx="540" cy="540" r="143.96"/>
	</g>
	<g>
		<path class="st1" d="M541.7,945.51h-14.18c-1.56,0-2.83-1.27-2.83-2.83v-20.04c0-0.75,0.3-1.47,0.83-2l19.54-19.54l-29.5-29.51
			l-9.35,9.35c-1.11,1.11-2.9,1.11-4,0l-21.12-21.12c-1.11-1.11-1.11-2.9,0-4l52.64-52.64V739.2H518c-0.75,0-1.47-0.3-2-0.83
			l-48.81-48.81c-0.53-0.53-0.83-1.25-0.83-2v-72.64l-20.09-20.09H421c-1.56,0-2.83-1.27-2.83-2.83v-53.2h-50.23
			c-0.75,0-1.47-0.3-2-0.83l-32.41-32.41c-0.53-0.53-0.83-1.25-0.83-2v-30.18h-24.43l-24.84,24.84c-0.53,0.53-1.25,0.83-2,0.83
			h-50.15c-1.56,0-2.83-1.27-2.83-2.83v-8.41H196.8c-0.75,0-1.47-0.3-2-0.83l-32.43-32.43c-0.53-0.53-0.83-1.25-0.83-2V407.6
			c0-0.75,0.3-1.47,0.83-2l45.68-45.67c0.53-0.53,1.25-0.83,2-0.83h35.66v-61.6l-13.19-13.19c-0.53-0.53-0.83-1.25-0.83-2v-41.1
			c0-1.56,1.27-2.83,2.83-2.83h46.22c0.75,0,1.47,0.3,2,0.83l20.44,20.44h41.53l24.71-24.71l-23.04-23.04
			c-0.81-0.81-1.05-2.03-0.61-3.09c0.44-1.06,1.47-1.75,2.62-1.75h43.39l21.67-21.67c0.53-0.53,1.25-0.83,2-0.83h20.56
			c1.56,0,2.83,1.27,2.83,2.83v42.39l28.19,28.19L485,240c0.53-0.53,1.25-0.83,2-0.83h78.1l25.77-25.77v-10.7
			c0-1.56,1.27-2.83,2.83-2.83h30.2c1.56,0,2.83,1.27,2.83,2.83v35.73L645,256.69c1.11,1.11,1.11,2.9,0,4l-47.15,47.15l23.24,23.24
			h19.1l28.53-28.53c0.53-0.53,1.25-0.83,2-0.83h44.91c0.75,0,1.47,0.3,2,0.83l20.19,20.19c0.53,0.53,0.83,1.25,0.83,2V348h99.67
			c0.75,0,1.47,0.3,2,0.83l77.3,77.3c0.53,0.53,0.83,1.25,0.83,2v73.48c0,1.56-1.27,2.83-2.83,2.83h-28.06l-51.03,51.03v77.05
			c0,0.75-0.3,1.47-0.83,2l-26.26,26.26v28.32c0,0.75-0.3,1.47-0.83,2l-49.56,49.56c-0.53,0.53-1.25,0.83-2,0.83h-40.43
			l-20.61,20.61c-0.53,0.53-1.25,0.83-2,0.83h-27.33l-38.54,38.54l17.49,17.49c1.11,1.11,1.11,2.9,0,4l-48.4,48.4v18.6
			c0,0.75-0.3,1.47-0.83,2l-52.71,52.71C543.17,945.21,542.45,945.51,541.7,945.51z M530.34,939.85h10.18l51.05-51.05v-18.6
			c0-0.75,0.3-1.47,0.83-2l47.22-47.23l-17.49-17.49c-1.11-1.11-1.11-2.9,0-4l41.37-41.37c0.53-0.53,1.25-0.83,2-0.83h27.33
			l20.61-20.61c0.53-0.53,1.25-0.83,2-0.83h40.43l47.9-47.9v-28.32c0-0.75,0.3-1.47,0.83-2l26.26-26.26v-77.05
			c0-0.75,0.3-1.47,0.83-2l52.69-52.69c0.53-0.53,1.25-0.83,2-0.83h26.4v-69.48l-75.64-75.64H735.82c-1.56,0-2.83-1.27-2.83-2.83
			v-24.91l-18.53-18.53H671.9l-28.53,28.53c-0.53,0.53-1.25,0.83-2,0.83h-21.45c-0.75,0-1.47-0.3-2-0.83l-26.08-26.08
			c-0.53-0.53-0.83-1.25-0.83-2c0-0.75,0.3-1.47,0.83-2l47.15-47.15L621.9,241.6c-0.53-0.53-0.83-1.25-0.83-2v-34.07h-24.54v9.05
			c0,0.75-0.3,1.47-0.83,2L568.28,244c-0.53,0.53-1.25,0.83-2,0.83h-78.1l-19.13,19.13c-1.11,1.11-2.9,1.11-4,0l-31.02-31.02
			c-0.53-0.53-0.83-1.25-0.83-2v-40.73h-16.56l-21.67,21.67c-0.53,0.53-1.25,0.83-2,0.83h-37.73l20.2,20.2c1.11,1.11,1.11,2.9,0,4
			l-27.54,27.55c-0.53,0.53-1.25,0.83-2,0.83H302c-0.75,0-1.47-0.3-2-0.83l-20.44-20.44h-42.22v37.1l13.19,13.19
			c0.53,0.53,0.83,1.25,0.83,2v65.6c0,1.56-1.27,2.83-2.83,2.83h-37.32l-44.02,44.02v42.6l30.77,30.77h33.3
			c1.56,0,2.83,1.27,2.83,2.83v8.41h46.14l24.84-24.84c0.53-0.53,1.25-0.83,2-0.83h28.44c1.56,0,2.83,1.27,2.83,2.83v31.84
			l30.75,30.75H421c1.56,0,2.83,1.27,2.83,2.83v53.2h23.62c0.75,0,1.47,0.3,2,0.83l21.75,21.75c0.53,0.53,0.83,1.25,0.83,2v72.64
			l47.15,47.15h17.36c1.56,0,2.83,1.27,2.83,2.83v67.98c0,0.75-0.3,1.47-0.83,2l-51.47,51.47l17.12,17.12l9.35-9.35
			c1.06-1.06,2.94-1.06,4,0l33.51,33.51c1.11,1.11,1.11,2.9,0,4l-20.71,20.71V939.85z"/>
		<g>
			<g>
				<path class="st1" d="M553.94,365.88c-0.33-0.69-0.99-1.22-1.75-1.42c-0.74-0.21-1.57-0.08-2.23,0.34
					c-0.59,0.38-0.91,0.98-1.12,1.37l-0.08,0.16c-0.85,1.61-1.87,3.14-3.02,4.54c-2.28,2.77-5.21,5.11-8.47,6.78
					c-3.14,1.59-6.66,2.69-10.43,3.26c-11.39,0.96-28.03,3.2-42.58,11.4l-0.64-2.54c-0.1-0.48-0.46-0.91-0.94-1.11
					c-0.31-0.11-0.44-0.12-0.58-0.13l-0.03,0.5l-0.09-0.52l-0.46-0.05c-0.7-0.07-1.31-0.09-1.9-0.07c-0.65,0.03-1.35,0.09-2.12,0.43
					c-0.36,0.17-0.86,0.47-1.14,1.04c-0.32,0.57-0.27,1.15-0.19,1.6c0,0.01,0,0.02,0.01,0.03l12.89,54.17l9.8,40.61l1,3.93
					c0.1,0.39,0.19,0.77,0.33,1.19c0.06,0.16,0.1,0.31,0.14,0.47c0.11,0.43,0.24,0.92,0.64,1.43c0.49,0.63,1.32,1.03,2.22,1.08
					c0.23,0.02,0.47,0.02,0.71,0c0.41-0.03,0.85-0.1,1.33-0.23c0.57-0.15,1.15-0.35,1.78-0.62c0.28-0.12,0.57-0.25,0.84-0.39
					l0.4-0.21c0.4-0.21,0.69-0.62,0.74-1.05c0.05-0.23,0-0.51-0.03-0.62L495.22,436c1.09-0.03,2.19-0.06,3.26-0.13
					c6.44-0.43,12.5-1.53,18.07-3.3c4.21-1.44,7.58-2.93,10.59-4.7c3.41-2.01,6.53-4.36,9.27-6.97c5.33-5.05,9.57-11.53,12.61-19.27
					c2.62-6.68,4.29-14.23,4.96-22.43c0.3-3.68,0.4-7.54,0.27-11.48l-0.03-0.75C554.19,366.53,554.09,366.17,553.94,365.88z
					 M488.85,410.42l-4-15.76c5.51-3.27,12.05-5.88,19.99-7.95c3.4-0.9,7-1.64,11.02-2.25c2.08-0.34,4.2-0.56,6.25-0.76
					c1.64-0.16,3.33-0.33,5.04-0.57c4.04-0.62,7.78-1.8,11.13-3.51c3.52-1.81,6.68-4.36,9.14-7.36c1.24-1.53,2.33-3.18,3.24-4.91
					l0.07-0.13c0.19-0.36,0.28-0.53,0.39-0.6c0.16-0.1,0.35-0.12,0.52-0.08c0.18,0.05,0.32,0.15,0.4,0.33
					c0.04,0.06,0.05,0.21,0.06,0.23l0.03,0.69c0.13,3.65,0.04,7.43-0.28,11.23c-0.67,7.99-2.31,15.33-4.86,21.8
					c-2.94,7.43-7.02,13.64-12.12,18.45c-2.62,2.49-5.61,4.72-8.87,6.63c-2.88,1.67-6.11,3.1-10.16,4.47
					c-6.43,2.02-13.56,3.12-21.2,3.3L488.85,410.42z M478.43,390.84c0.28-0.13,0.73-0.2,1.28-0.22c0.48-0.02,1,0.01,1.58,0.07
					l0.26,0.03l0.81,3.27c-0.02,0.24,0.01,0.49,0.15,0.71c0.01,0.02,0.03,0.03,0.04,0.04l4.04,16.25l6.04,23.83
					c0,0.03-0.01,0.05-0.01,0.08c0,0.21,0.08,0.4,0.18,0.57l14.18,55.92c-1.79,0.9-3.82,1.51-4.51,0.69c-0.12-0.13-0.22-0.5-0.3-0.8
					c-0.05-0.17-0.09-0.33-0.14-0.48c-0.11-0.34-0.2-0.71-0.3-1.07l-4.34-17.42l-6.42-27.09l-12.63-54.2
					c-0.01-0.06-0.01-0.09-0.02-0.1C478.33,390.89,478.37,390.87,478.43,390.84z"/>
				<path class="st1" d="M516.12,423.91c1.1,0.2,2.12,0.37,3.22,0.29c0.13-0.01,0.27-0.02,0.41-0.04c0.6-0.08,1.38-0.24,2.11-0.83
					l0.67-0.69c0.15-0.17,0.27-0.34,0.39-0.51l0.18-0.25c1.32-1.96,2.2-4.08,3.06-6.13c0.77-1.88,1.51-3.87,2.34-6.28
					c0.7-2.04,1.39-4.17,2.07-6.35l1.69-5.58c0.12-0.39,0.16-0.82,0.11-1.22c-0.09-0.83-0.52-1.6-1.17-2.1
					c-0.29-0.23-0.68-0.43-1.07-0.55l-3.99-1.21c-2.31-0.67-4.42-1.24-6.46-1.74c-2.63-0.64-4.67-1.05-6.62-1.33
					c-0.99-0.13-2.22-0.29-3.43-0.27c-0.33-0.02-0.72,0.03-1.06,0.08c-0.02,0-0.12,0.03-0.14,0.04c-0.31,0.1-0.64,0.19-0.91,0.35
					c-0.68,0.33-1.21,0.79-1.61,1.16c-1.74,1.7-2.86,3.69-3.95,5.76c-0.92,1.81-1.79,3.77-2.74,6.17c-0.73,1.86-1.48,3.92-2.28,6.3
					c-0.36,1.06-0.71,2.12-1.03,3.18l-0.13,0.41c-0.06,0.2-0.1,0.41-0.12,0.62c-0.04,0.42,0.01,0.86,0.13,1.27
					c0.26,0.82,0.84,1.51,1.61,1.89c4.58,2.35,8.46,4.11,12.2,5.55C511.6,422.67,513.77,423.43,516.12,423.91z M516.54,421.83
					c-2.2-0.46-4.35-1.22-6.17-1.92c-3.65-1.42-7.45-3.16-11.95-5.5c-0.23-0.13-0.39-0.34-0.46-0.58c-0.03-0.12-0.04-0.25-0.02-0.38
					c0.01-0.06,0.02-0.12,0.04-0.17l1.19-3.54c0.77-2.33,1.49-4.36,2.21-6.21c0.9-2.34,1.73-4.24,2.61-5.98
					c0.96-1.87,2.05-3.79,3.46-5.18c0.83-0.78,1.48-1.1,2.2-1.05c1-0.02,2.06,0.1,3.14,0.23c1.87,0.26,3.85,0.65,6.42,1.25
					c2,0.47,4.09,1.02,6.38,1.67l3.97,1.17c0.19,0.06,0.3,0.11,0.42,0.2c0.22,0.17,0.37,0.43,0.4,0.71
					c0.02,0.14,0.01,0.28-0.04,0.42l-1.66,5.55c-0.68,2.17-1.38,4.28-2.07,6.28c-0.82,2.33-1.58,4.34-2.32,6.16
					c-0.91,2.16-1.75,4.08-2.86,5.71l-0.18,0.25c-0.08,0.12-0.17,0.24-0.24,0.33l-0.47,0.49c-0.14,0.11-0.42,0.26-1,0.33
					C518.59,422.18,517.53,422.02,516.54,421.83z"/>
				<path class="st1" d="M523.8,407.67c0.29-0.34,0.38-0.82,0.18-1.24c0-0.01-0.01-0.02-0.01-0.02c0.03-0.43,0.04-0.86,0-1.28
					c0,0,0,0,0,0c-0.19-2.39-1.46-4.74-3.4-6.3c-1.89-1.58-4.32-2.39-6.66-2.23c-0.01,0-0.03,0-0.05,0
					c-2.42,0.16-4.72,1.28-6.31,3.07c-0.48,0.53-0.88,1.12-1.23,1.74c-0.34,0.21-0.58,0.57-0.57,1c0,0.06,0.03,0.11,0.03,0.17
					c-0.23,0.61-0.4,1.24-0.5,1.88c-0.01,0.01-0.02,0.01-0.03,0.03c-0.2,0.24-0.3,0.55-0.28,0.86c0.02,0.21,0.1,0.39,0.21,0.55
					c0,0.17-0.01,0.34,0,0.5c0.12,2.47,1.26,4.84,3.11,6.48c1.81,1.65,4.37,2.53,6.85,2.38c0.03,0,0.06,0,0.09-0.01
					c2.47-0.16,4.87-1.36,6.44-3.2C522.75,410.77,523.48,409.26,523.8,407.67z M514.01,398.35c0.02,0,0.04,0,0.06,0
					c1.97-0.13,3.95,0.55,5.31,1.82c1.02,0.97,1.74,2.27,2.06,3.71c-3.55-2.06-9.46-2.55-12.68-2.65c0.08-0.11,0.14-0.23,0.23-0.33
					C510.22,399.43,512.1,398.47,514.01,398.35z M521.53,406.89c-0.02,0.13-0.06,0.26-0.09,0.39c-0.08-0.05-0.16-0.09-0.25-0.14
					l-0.29-0.12c-0.24-0.1-0.47-0.21-0.71-0.29c-0.72-0.27-1.38-0.47-2-0.62c-1.42-0.35-2.71-0.62-3.95-0.82
					c-1.6-0.28-3.19-0.52-4.79-0.76c-0.68-0.1-1.36-0.21-2.04-0.31c0.04-0.22,0.08-0.45,0.15-0.66
					C512.35,403.6,519.6,404.51,521.53,406.89z M510.11,406.41c1.16,0.06,2.39,0.2,3.86,0.44c1.42,0.25,2.63,0.56,3.72,0.94
					c1.34,0.47,2.27,1,2.9,1.64c-0.21,0.35-0.45,0.69-0.72,1c-1.25,1.41-3.03,2.3-4.88,2.43c-1.86,0.12-3.75-0.48-5.2-1.71
					c-1.42-1.19-2.31-2.93-2.49-4.79C508.11,406.34,509.02,406.35,510.11,406.41z"/>
			</g>
			<g>
				
					<rect x="674.31" y="491.47" transform="matrix(-1 -4.481538e-11 4.481538e-11 -1 1407.0314 1020.1124)" class="st2" width="58.41" height="37.17"/>
				
					<rect x="633.16" y="502.5" transform="matrix(-1 -4.476209e-11 4.476209e-11 -1 1306.3506 1021.7461)" class="st2" width="40.03" height="16.75"/>
				
					<rect x="550.76" y="498.82" transform="matrix(-1 -4.494905e-11 4.494905e-11 -1 1182.797 1018.0701)" class="st2" width="81.28" height="20.42"/>
				<polygon class="st2" points="549.64,450.22 549.64,525.2 487.55,536.4 487.55,462.47 				"/>
				
					<rect x="469.68" y="490.25" transform="matrix(-1 -4.627288e-11 4.627288e-11 -1 956.1119 1032.3656)" class="st2" width="16.75" height="51.87"/>
				<g>
					<g>
						<polyline class="st3" points="535.85,529.84 535.85,532.59 535.85,542.68 501.54,539.53 501.54,537.63 501.54,536.26 						
							"/>
						<circle class="st4" cx="535.44" cy="550.97" r="7.76"/>
					</g>
					<line class="st3" x1="487.64" y1="538.74" x2="549.51" y2="527.32"/>
				</g>
				<line class="st3" x1="487.64" y1="459.74" x2="549.51" y2="448.32"/>
			</g>
		</g>
	</g>
</g>
</svg>
